<svg width="221" height="222" viewBox="0 0 221 222" fill="none" xmlns="http://www.w3.org/2000/svg">
<g clip-path="url(#clip0)">
<g clip-path="url(#clip1)">
<circle cx="137.566" cy="4.09808" r="3" transform="rotate(60 137.566 4.09808)" fill="#CD99F5"/>
<circle cx="145.066" cy="17.0883" r="3" transform="rotate(60 145.066 17.0883)" fill="#CD99F5"/>
<circle cx="152.566" cy="30.0785" r="3" transform="rotate(60 152.566 30.0785)" fill="#CD99F5"/>
<circle cx="160.066" cy="43.0688" r="3" transform="rotate(60 160.066 43.0688)" fill="#CD99F5"/>
<circle cx="167.566" cy="56.06" r="3" transform="rotate(60 167.566 56.06)" fill="#CD99F5"/>
<circle cx="175.066" cy="69.0502" r="3" transform="rotate(60 175.066 69.0502)" fill="#CD99F5"/>
<circle cx="182.566" cy="82.0405" r="3" transform="rotate(60 182.566 82.0405)" fill="#CD99F5"/>
<circle cx="190.066" cy="95.0307" r="3" transform="rotate(60 190.066 95.0307)" fill="#CD99F5"/>
<circle cx="197.566" cy="108.021" r="3" transform="rotate(60 197.566 108.021)" fill="#CD99F5"/>
<circle cx="205.066" cy="121.011" r="3" transform="rotate(60 205.066 121.011)" fill="#CD99F5"/>
<circle cx="212.566" cy="134.002" r="3" transform="rotate(60 212.566 134.002)" fill="#CD99F5"/>
<circle cx="220.066" cy="146.993" r="3" transform="rotate(60 220.066 146.993)" fill="#CD99F5"/>
</g>
<g clip-path="url(#clip2)">
<circle cx="124.576" cy="11.5981" r="3" transform="rotate(60 124.576 11.5981)" fill="#CD99F5"/>
<circle cx="132.076" cy="24.5883" r="3" transform="rotate(60 132.076 24.5883)" fill="#CD99F5"/>
<circle cx="139.576" cy="37.5785" r="3" transform="rotate(60 139.576 37.5785)" fill="#CD99F5"/>
<circle cx="147.076" cy="50.5688" r="3" transform="rotate(60 147.076 50.5688)" fill="#CD99F5"/>
<circle cx="154.576" cy="63.56" r="3" transform="rotate(60 154.576 63.56)" fill="#CD99F5"/>
<circle cx="162.076" cy="76.5502" r="3" transform="rotate(60 162.076 76.5502)" fill="#CD99F5"/>
<circle cx="169.576" cy="89.5405" r="3" transform="rotate(60 169.576 89.5405)" fill="#CD99F5"/>
<circle cx="177.076" cy="102.531" r="3" transform="rotate(60 177.076 102.531)" fill="#CD99F5"/>
<circle cx="184.576" cy="115.521" r="3" transform="rotate(60 184.576 115.521)" fill="#CD99F5"/>
<circle cx="192.076" cy="128.511" r="3" transform="rotate(60 192.076 128.511)" fill="#CD99F5"/>
<circle cx="199.576" cy="141.502" r="3" transform="rotate(60 199.576 141.502)" fill="#CD99F5"/>
<circle cx="207.076" cy="154.493" r="3" transform="rotate(60 207.076 154.493)" fill="#CD99F5"/>
<circle cx="214.576" cy="167.483" r="3" transform="rotate(60 214.576 167.483)" fill="#CD99F5"/>
</g>
<g clip-path="url(#clip3)">
<circle cx="111.585" cy="19.0981" r="3" transform="rotate(60 111.585 19.0981)" fill="#CD99F5"/>
<circle cx="119.085" cy="32.0883" r="3" transform="rotate(60 119.085 32.0883)" fill="#CD99F5"/>
<circle cx="126.585" cy="45.0785" r="3" transform="rotate(60 126.585 45.0785)" fill="#CD99F5"/>
<circle cx="134.085" cy="58.0688" r="3" transform="rotate(60 134.085 58.0688)" fill="#CD99F5"/>
<circle cx="141.585" cy="71.06" r="3" transform="rotate(60 141.585 71.06)" fill="#CD99F5"/>
<circle cx="149.085" cy="84.0502" r="3" transform="rotate(60 149.085 84.0502)" fill="#CD99F5"/>
<circle cx="156.585" cy="97.0405" r="3" transform="rotate(60 156.585 97.0405)" fill="#CD99F5"/>
<circle cx="164.085" cy="110.031" r="3" transform="rotate(60 164.085 110.031)" fill="#CD99F5"/>
<circle cx="171.585" cy="123.021" r="3" transform="rotate(60 171.585 123.021)" fill="#CD99F5"/>
<circle cx="179.085" cy="136.011" r="3" transform="rotate(60 179.085 136.011)" fill="#CD99F5"/>
<circle cx="186.585" cy="149.002" r="3" transform="rotate(60 186.585 149.002)" fill="#CD99F5"/>
<circle cx="194.085" cy="161.993" r="3" transform="rotate(60 194.085 161.993)" fill="#CD99F5"/>
<circle cx="201.585" cy="174.983" r="3" transform="rotate(60 201.585 174.983)" fill="#CD99F5"/>
</g>
<g clip-path="url(#clip4)">
<circle cx="98.5948" cy="26.5981" r="3" transform="rotate(60 98.5948 26.5981)" fill="#CD99F5"/>
<circle cx="106.095" cy="39.5883" r="3" transform="rotate(60 106.095 39.5883)" fill="#CD99F5"/>
<circle cx="113.595" cy="52.5785" r="3" transform="rotate(60 113.595 52.5785)" fill="#CD99F5"/>
<circle cx="121.095" cy="65.5688" r="3" transform="rotate(60 121.095 65.5688)" fill="#CD99F5"/>
<circle cx="128.595" cy="78.56" r="3" transform="rotate(60 128.595 78.56)" fill="#CD99F5"/>
<circle cx="136.095" cy="91.5502" r="3" transform="rotate(60 136.095 91.5502)" fill="#CD99F5"/>
<circle cx="143.595" cy="104.54" r="3" transform="rotate(60 143.595 104.54)" fill="#CD99F5"/>
<circle cx="151.095" cy="117.531" r="3" transform="rotate(60 151.095 117.531)" fill="#CD99F5"/>
<circle cx="158.595" cy="130.521" r="3" transform="rotate(60 158.595 130.521)" fill="#CD99F5"/>
<circle cx="166.095" cy="143.511" r="3" transform="rotate(60 166.095 143.511)" fill="#CD99F5"/>
<circle cx="173.595" cy="156.502" r="3" transform="rotate(60 173.595 156.502)" fill="#CD99F5"/>
<circle cx="181.095" cy="169.493" r="3" transform="rotate(60 181.095 169.493)" fill="#CD99F5"/>
<circle cx="188.595" cy="182.483" r="3" transform="rotate(60 188.595 182.483)" fill="#CD99F5"/>
</g>
<g clip-path="url(#clip5)">
<circle cx="85.6046" cy="34.0981" r="3" transform="rotate(60 85.6046 34.0981)" fill="#CD99F5"/>
<circle cx="93.1046" cy="47.0883" r="3" transform="rotate(60 93.1046 47.0883)" fill="#CD99F5"/>
<circle cx="100.605" cy="60.0785" r="3" transform="rotate(60 100.605 60.0785)" fill="#CD99F5"/>
<circle cx="108.105" cy="73.0688" r="3" transform="rotate(60 108.105 73.0688)" fill="#CD99F5"/>
<circle cx="115.605" cy="86.06" r="3" transform="rotate(60 115.605 86.06)" fill="#CD99F5"/>
<circle cx="123.105" cy="99.0502" r="3" transform="rotate(60 123.105 99.0502)" fill="#CD99F5"/>
<circle cx="130.605" cy="112.04" r="3" transform="rotate(60 130.605 112.04)" fill="#CD99F5"/>
<circle cx="138.105" cy="125.031" r="3" transform="rotate(60 138.105 125.031)" fill="#CD99F5"/>
<circle cx="145.605" cy="138.021" r="3" transform="rotate(60 145.605 138.021)" fill="#CD99F5"/>
<circle cx="153.105" cy="151.011" r="3" transform="rotate(60 153.105 151.011)" fill="#CD99F5"/>
<circle cx="160.605" cy="164.002" r="3" transform="rotate(60 160.605 164.002)" fill="#CD99F5"/>
<circle cx="168.105" cy="176.993" r="3" transform="rotate(60 168.105 176.993)" fill="#CD99F5"/>
<circle cx="175.605" cy="189.983" r="3" transform="rotate(60 175.605 189.983)" fill="#CD99F5"/>
</g>
<g clip-path="url(#clip6)">
<circle cx="72.6138" cy="41.5981" r="3" transform="rotate(60 72.6138 41.5981)" fill="#CD99F5"/>
<circle cx="80.1138" cy="54.5883" r="3" transform="rotate(60 80.1138 54.5883)" fill="#CD99F5"/>
<circle cx="87.6138" cy="67.5785" r="3" transform="rotate(60 87.6138 67.5785)" fill="#CD99F5"/>
<circle cx="95.1138" cy="80.5688" r="3" transform="rotate(60 95.1138 80.5688)" fill="#CD99F5"/>
<circle cx="102.614" cy="93.56" r="3" transform="rotate(60 102.614 93.56)" fill="#CD99F5"/>
<circle cx="110.114" cy="106.55" r="3" transform="rotate(60 110.114 106.55)" fill="#CD99F5"/>
<circle cx="117.614" cy="119.54" r="3" transform="rotate(60 117.614 119.54)" fill="#CD99F5"/>
<circle cx="125.114" cy="132.531" r="3" transform="rotate(60 125.114 132.531)" fill="#CD99F5"/>
<circle cx="132.614" cy="145.521" r="3" transform="rotate(60 132.614 145.521)" fill="#CD99F5"/>
<circle cx="140.114" cy="158.511" r="3" transform="rotate(60 140.114 158.511)" fill="#CD99F5"/>
<circle cx="147.614" cy="171.502" r="3" transform="rotate(60 147.614 171.502)" fill="#CD99F5"/>
<circle cx="155.114" cy="184.493" r="3" transform="rotate(60 155.114 184.493)" fill="#CD99F5"/>
<circle cx="162.614" cy="197.483" r="3" transform="rotate(60 162.614 197.483)" fill="#CD99F5"/>
</g>
<g clip-path="url(#clip7)">
<circle cx="59.6236" cy="49.0981" r="3" transform="rotate(60 59.6236 49.0981)" fill="#CD99F5"/>
<circle cx="67.1236" cy="62.0883" r="3" transform="rotate(60 67.1236 62.0883)" fill="#CD99F5"/>
<circle cx="74.6236" cy="75.0785" r="3" transform="rotate(60 74.6236 75.0785)" fill="#CD99F5"/>
<circle cx="82.1236" cy="88.0688" r="3" transform="rotate(60 82.1236 88.0688)" fill="#CD99F5"/>
<circle cx="89.6236" cy="101.06" r="3" transform="rotate(60 89.6236 101.06)" fill="#CD99F5"/>
<circle cx="97.1236" cy="114.05" r="3" transform="rotate(60 97.1236 114.05)" fill="#CD99F5"/>
<circle cx="104.624" cy="127.04" r="3" transform="rotate(60 104.624 127.04)" fill="#CD99F5"/>
<circle cx="112.124" cy="140.031" r="3" transform="rotate(60 112.124 140.031)" fill="#CD99F5"/>
<circle cx="119.624" cy="153.021" r="3" transform="rotate(60 119.624 153.021)" fill="#CD99F5"/>
<circle cx="127.124" cy="166.011" r="3" transform="rotate(60 127.124 166.011)" fill="#CD99F5"/>
<circle cx="134.624" cy="179.002" r="3" transform="rotate(60 134.624 179.002)" fill="#CD99F5"/>
<circle cx="142.124" cy="191.993" r="3" transform="rotate(60 142.124 191.993)" fill="#CD99F5"/>
<circle cx="149.624" cy="204.983" r="3" transform="rotate(60 149.624 204.983)" fill="#CD99F5"/>
</g>
<g clip-path="url(#clip8)">
<circle cx="46.6334" cy="56.5981" r="3" transform="rotate(60 46.6334 56.5981)" fill="#CD99F5"/>
<circle cx="54.1334" cy="69.5883" r="3" transform="rotate(60 54.1334 69.5883)" fill="#CD99F5"/>
<circle cx="61.6334" cy="82.5785" r="3" transform="rotate(60 61.6334 82.5785)" fill="#CD99F5"/>
<circle cx="69.1334" cy="95.5688" r="3" transform="rotate(60 69.1334 95.5688)" fill="#CD99F5"/>
<circle cx="76.6334" cy="108.56" r="3" transform="rotate(60 76.6334 108.56)" fill="#CD99F5"/>
<circle cx="84.1334" cy="121.55" r="3" transform="rotate(60 84.1334 121.55)" fill="#CD99F5"/>
<circle cx="91.6334" cy="134.54" r="3" transform="rotate(60 91.6334 134.54)" fill="#CD99F5"/>
<circle cx="99.1334" cy="147.531" r="3" transform="rotate(60 99.1334 147.531)" fill="#CD99F5"/>
<circle cx="106.633" cy="160.521" r="3" transform="rotate(60 106.633 160.521)" fill="#CD99F5"/>
<circle cx="114.133" cy="173.511" r="3" transform="rotate(60 114.133 173.511)" fill="#CD99F5"/>
<circle cx="121.633" cy="186.502" r="3" transform="rotate(60 121.633 186.502)" fill="#CD99F5"/>
<circle cx="129.133" cy="199.493" r="3" transform="rotate(60 129.133 199.493)" fill="#CD99F5"/>
<circle cx="136.633" cy="212.483" r="3" transform="rotate(60 136.633 212.483)" fill="#CD99F5"/>
</g>
<g clip-path="url(#clip9)">
<circle cx="33.6431" cy="64.0981" r="3" transform="rotate(60 33.6431 64.0981)" fill="#CD99F5"/>
<circle cx="41.1431" cy="77.0883" r="3" transform="rotate(60 41.1431 77.0883)" fill="#CD99F5"/>
<circle cx="48.6431" cy="90.0785" r="3" transform="rotate(60 48.6431 90.0785)" fill="#CD99F5"/>
<circle cx="56.1431" cy="103.069" r="3" transform="rotate(60 56.1431 103.069)" fill="#CD99F5"/>
<circle cx="63.6431" cy="116.06" r="3" transform="rotate(60 63.6431 116.06)" fill="#CD99F5"/>
<circle cx="71.1431" cy="129.05" r="3" transform="rotate(60 71.1431 129.05)" fill="#CD99F5"/>
<circle cx="78.6431" cy="142.04" r="3" transform="rotate(60 78.6431 142.04)" fill="#CD99F5"/>
<circle cx="86.1431" cy="155.031" r="3" transform="rotate(60 86.1431 155.031)" fill="#CD99F5"/>
<circle cx="93.6431" cy="168.021" r="3" transform="rotate(60 93.6431 168.021)" fill="#CD99F5"/>
<circle cx="101.143" cy="181.011" r="3" transform="rotate(60 101.143 181.011)" fill="#CD99F5"/>
<circle cx="108.643" cy="194.002" r="3" transform="rotate(60 108.643 194.002)" fill="#CD99F5"/>
<circle cx="116.143" cy="206.993" r="3" transform="rotate(60 116.143 206.993)" fill="#CD99F5"/>
<circle cx="123.643" cy="219.983" r="3" transform="rotate(60 123.643 219.983)" fill="#CD99F5"/>
</g>
<g clip-path="url(#clip10)">
<circle cx="20.6524" cy="71.5981" r="3" transform="rotate(60 20.6524 71.5981)" fill="#CD99F5"/>
<circle cx="28.1524" cy="84.5883" r="3" transform="rotate(60 28.1524 84.5883)" fill="#CD99F5"/>
<circle cx="35.6524" cy="97.5785" r="3" transform="rotate(60 35.6524 97.5785)" fill="#CD99F5"/>
<circle cx="43.1524" cy="110.569" r="3" transform="rotate(60 43.1524 110.569)" fill="#CD99F5"/>
<circle cx="50.6524" cy="123.56" r="3" transform="rotate(60 50.6524 123.56)" fill="#CD99F5"/>
<circle cx="58.1524" cy="136.55" r="3" transform="rotate(60 58.1524 136.55)" fill="#CD99F5"/>
<circle cx="65.6524" cy="149.54" r="3" transform="rotate(60 65.6524 149.54)" fill="#CD99F5"/>
<circle cx="73.1524" cy="162.531" r="3" transform="rotate(60 73.1524 162.531)" fill="#CD99F5"/>
<circle cx="80.6524" cy="175.521" r="3" transform="rotate(60 80.6524 175.521)" fill="#CD99F5"/>
<circle cx="88.1524" cy="188.511" r="3" transform="rotate(60 88.1524 188.511)" fill="#CD99F5"/>
<circle cx="95.6524" cy="201.502" r="3" transform="rotate(60 95.6524 201.502)" fill="#CD99F5"/>
<circle cx="103.152" cy="214.493" r="3" transform="rotate(60 103.152 214.493)" fill="#CD99F5"/>
</g>
<g clip-path="url(#clip11)">
<circle cx="7.66218" cy="79.0981" r="3" transform="rotate(60 7.66218 79.0981)" fill="#CD99F5"/>
<circle cx="15.1622" cy="92.0883" r="3" transform="rotate(60 15.1622 92.0883)" fill="#CD99F5"/>
<circle cx="22.6622" cy="105.079" r="3" transform="rotate(60 22.6622 105.079)" fill="#CD99F5"/>
<circle cx="30.1622" cy="118.069" r="3" transform="rotate(60 30.1622 118.069)" fill="#CD99F5"/>
<circle cx="37.6622" cy="131.06" r="3" transform="rotate(60 37.6622 131.06)" fill="#CD99F5"/>
<circle cx="45.1622" cy="144.05" r="3" transform="rotate(60 45.1622 144.05)" fill="#CD99F5"/>
<circle cx="52.6622" cy="157.04" r="3" transform="rotate(60 52.6622 157.04)" fill="#CD99F5"/>
<circle cx="60.1622" cy="170.031" r="3" transform="rotate(60 60.1622 170.031)" fill="#CD99F5"/>
<circle cx="67.6622" cy="183.021" r="3" transform="rotate(60 67.6622 183.021)" fill="#CD99F5"/>
<circle cx="75.1622" cy="196.011" r="3" transform="rotate(60 75.1622 196.011)" fill="#CD99F5"/>
<circle cx="82.6622" cy="209.002" r="3" transform="rotate(60 82.6622 209.002)" fill="#CD99F5"/>
<circle cx="90.1622" cy="221.993" r="3" transform="rotate(60 90.1622 221.993)" fill="#CD99F5"/>
</g>
<g clip-path="url(#clip12)">
<circle cx="2.17194" cy="99.5883" r="3" transform="rotate(60 2.17194 99.5883)" fill="#CD99F5"/>
<circle cx="9.67194" cy="112.579" r="3" transform="rotate(60 9.67194 112.579)" fill="#CD99F5"/>
<circle cx="17.1719" cy="125.569" r="3" transform="rotate(60 17.1719 125.569)" fill="#CD99F5"/>
<circle cx="24.6719" cy="138.56" r="3" transform="rotate(60 24.6719 138.56)" fill="#CD99F5"/>
<circle cx="32.1719" cy="151.55" r="3" transform="rotate(60 32.1719 151.55)" fill="#CD99F5"/>
<circle cx="39.6719" cy="164.54" r="3" transform="rotate(60 39.6719 164.54)" fill="#CD99F5"/>
<circle cx="47.1719" cy="177.531" r="3" transform="rotate(60 47.1719 177.531)" fill="#CD99F5"/>
<circle cx="54.6719" cy="190.521" r="3" transform="rotate(60 54.6719 190.521)" fill="#CD99F5"/>
<circle cx="62.1719" cy="203.511" r="3" transform="rotate(60 62.1719 203.511)" fill="#CD99F5"/>
<circle cx="69.6719" cy="216.502" r="3" transform="rotate(60 69.6719 216.502)" fill="#CD99F5"/>
</g>
<g clip-path="url(#clip13)">
<circle cx="-3.31878" cy="120.079" r="3" transform="rotate(60 -3.31878 120.079)" fill="#CD99F5"/>
<circle cx="4.18122" cy="133.069" r="3" transform="rotate(60 4.18122 133.069)" fill="#CD99F5"/>
<circle cx="11.6812" cy="146.06" r="3" transform="rotate(60 11.6812 146.06)" fill="#CD99F5"/>
<circle cx="19.1812" cy="159.05" r="3" transform="rotate(60 19.1812 159.05)" fill="#CD99F5"/>
<circle cx="26.6812" cy="172.04" r="3" transform="rotate(60 26.6812 172.04)" fill="#CD99F5"/>
<circle cx="34.1812" cy="185.031" r="3" transform="rotate(60 34.1812 185.031)" fill="#CD99F5"/>
<circle cx="41.6812" cy="198.021" r="3" transform="rotate(60 41.6812 198.021)" fill="#CD99F5"/>
<circle cx="49.1812" cy="211.011" r="3" transform="rotate(60 49.1812 211.011)" fill="#CD99F5"/>
<circle cx="56.6812" cy="224.002" r="3" transform="rotate(60 56.6812 224.002)" fill="#CD99F5"/>
</g>
</g>
<defs>
<clipPath id="clip0">
<rect width="163.3" height="160.116" fill="white" transform="translate(138.664) rotate(60)"/>
</clipPath>
<clipPath id="clip1">
<rect width="200" height="15" fill="white" transform="translate(138.664) rotate(60)"/>
</clipPath>
<clipPath id="clip2">
<rect width="200" height="15" fill="white" transform="translate(125.674 7.5) rotate(60)"/>
</clipPath>
<clipPath id="clip3">
<rect width="200" height="15" fill="white" transform="translate(112.683 15) rotate(60)"/>
</clipPath>
<clipPath id="clip4">
<rect width="200" height="15" fill="white" transform="translate(99.6929 22.5) rotate(60)"/>
</clipPath>
<clipPath id="clip5">
<rect width="200" height="15" fill="white" transform="translate(86.7026 30) rotate(60)"/>
</clipPath>
<clipPath id="clip6">
<rect width="200" height="15" fill="white" transform="translate(73.7119 37.5) rotate(60)"/>
</clipPath>
<clipPath id="clip7">
<rect width="200" height="15" fill="white" transform="translate(60.7217 45) rotate(60)"/>
</clipPath>
<clipPath id="clip8">
<rect width="200" height="15" fill="white" transform="translate(47.7314 52.5) rotate(60)"/>
</clipPath>
<clipPath id="clip9">
<rect width="200" height="15" fill="white" transform="translate(34.7412 60) rotate(60)"/>
</clipPath>
<clipPath id="clip10">
<rect width="200" height="15" fill="white" transform="translate(21.7505 67.5) rotate(60)"/>
</clipPath>
<clipPath id="clip11">
<rect width="200" height="15" fill="white" transform="translate(8.76025 75) rotate(60)"/>
</clipPath>
<clipPath id="clip12">
<rect width="200" height="15" fill="white" transform="translate(-4.22998 82.5) rotate(60)"/>
</clipPath>
<clipPath id="clip13">
<rect width="200" height="15" fill="white" transform="translate(-17.2207 90) rotate(60)"/>
</clipPath>
</defs>
</svg>
