<svg width="245" height="245" viewBox="0 0 245 245" fill="none" xmlns="http://www.w3.org/2000/svg">
<g clip-path="url(#clip0)">
<g clip-path="url(#clip1)">
<circle cx="3.67423" cy="53.885" r="3" transform="rotate(-15 3.67423 53.885)" fill="#F59999"/>
<circle cx="18.163" cy="50.0027" r="3" transform="rotate(-15 18.163 50.0027)" fill="#F59999"/>
<circle cx="32.6518" cy="46.1203" r="3" transform="rotate(-15 32.6518 46.1203)" fill="#F59999"/>
<circle cx="47.141" cy="42.238" r="3" transform="rotate(-15 47.141 42.238)" fill="#F59999"/>
<circle cx="61.6298" cy="38.3559" r="3" transform="rotate(-15 61.6298 38.3559)" fill="#F59999"/>
<circle cx="76.1186" cy="34.4736" r="3" transform="rotate(-15 76.1186 34.4736)" fill="#F59999"/>
<circle cx="90.6073" cy="30.5913" r="3" transform="rotate(-15 90.6073 30.5913)" fill="#F59999"/>
<circle cx="105.097" cy="26.709" r="3" transform="rotate(-15 105.097 26.709)" fill="#F59999"/>
<circle cx="119.585" cy="22.8266" r="3" transform="rotate(-15 119.585 22.8266)" fill="#F59999"/>
<circle cx="134.074" cy="18.9443" r="3" transform="rotate(-15 134.074 18.9443)" fill="#F59999"/>
<circle cx="148.563" cy="15.0622" r="3" transform="rotate(-15 148.563 15.0622)" fill="#F59999"/>
<circle cx="163.052" cy="11.1799" r="3" transform="rotate(-15 163.052 11.1799)" fill="#F59999"/>
<circle cx="177.541" cy="7.29759" r="3" transform="rotate(-15 177.541 7.29759)" fill="#F59999"/>
</g>
<g clip-path="url(#clip2)">
<circle cx="7.55656" cy="68.3738" r="3" transform="rotate(-15 7.55656 68.3738)" fill="#F59999"/>
<circle cx="22.0453" cy="64.4914" r="3" transform="rotate(-15 22.0453 64.4914)" fill="#F59999"/>
<circle cx="36.5341" cy="60.6091" r="3" transform="rotate(-15 36.5341 60.6091)" fill="#F59999"/>
<circle cx="51.0234" cy="56.7268" r="3" transform="rotate(-15 51.0234 56.7268)" fill="#F59999"/>
<circle cx="65.5121" cy="52.8447" r="3" transform="rotate(-15 65.5121 52.8447)" fill="#F59999"/>
<circle cx="80.0009" cy="48.9624" r="3" transform="rotate(-15 80.0009 48.9624)" fill="#F59999"/>
<circle cx="94.4897" cy="45.0801" r="3" transform="rotate(-15 94.4897 45.0801)" fill="#F59999"/>
<circle cx="108.979" cy="41.1977" r="3" transform="rotate(-15 108.979 41.1977)" fill="#F59999"/>
<circle cx="123.468" cy="37.3154" r="3" transform="rotate(-15 123.468 37.3154)" fill="#F59999"/>
<circle cx="137.956" cy="33.4331" r="3" transform="rotate(-15 137.956 33.4331)" fill="#F59999"/>
<circle cx="152.445" cy="29.551" r="3" transform="rotate(-15 152.445 29.551)" fill="#F59999"/>
<circle cx="166.934" cy="25.6687" r="3" transform="rotate(-15 166.934 25.6687)" fill="#F59999"/>
<circle cx="181.423" cy="21.7864" r="3" transform="rotate(-15 181.423 21.7864)" fill="#F59999"/>
</g>
<g clip-path="url(#clip3)">
<circle cx="11.4389" cy="82.8628" r="3" transform="rotate(-15 11.4389 82.8628)" fill="#F59999"/>
<circle cx="25.9277" cy="78.9805" r="3" transform="rotate(-15 25.9277 78.9805)" fill="#F59999"/>
<circle cx="40.4164" cy="75.0981" r="3" transform="rotate(-15 40.4164 75.0981)" fill="#F59999"/>
<circle cx="54.9057" cy="71.2158" r="3" transform="rotate(-15 54.9057 71.2158)" fill="#F59999"/>
<circle cx="69.3944" cy="67.3337" r="3" transform="rotate(-15 69.3944 67.3337)" fill="#F59999"/>
<circle cx="83.8832" cy="63.4514" r="3" transform="rotate(-15 83.8832 63.4514)" fill="#F59999"/>
<circle cx="98.372" cy="59.5691" r="3" transform="rotate(-15 98.372 59.5691)" fill="#F59999"/>
<circle cx="112.861" cy="55.6867" r="3" transform="rotate(-15 112.861 55.6867)" fill="#F59999"/>
<circle cx="127.35" cy="51.8044" r="3" transform="rotate(-15 127.35 51.8044)" fill="#F59999"/>
<circle cx="141.839" cy="47.9221" r="3" transform="rotate(-15 141.839 47.9221)" fill="#F59999"/>
<circle cx="156.328" cy="44.04" r="3" transform="rotate(-15 156.328 44.04)" fill="#F59999"/>
<circle cx="170.817" cy="40.1577" r="3" transform="rotate(-15 170.817 40.1577)" fill="#F59999"/>
<circle cx="185.306" cy="36.2754" r="3" transform="rotate(-15 185.306 36.2754)" fill="#F59999"/>
</g>
<g clip-path="url(#clip4)">
<circle cx="15.3212" cy="97.3515" r="3" transform="rotate(-15 15.3212 97.3515)" fill="#F59999"/>
<circle cx="29.81" cy="93.4692" r="3" transform="rotate(-15 29.81 93.4692)" fill="#F59999"/>
<circle cx="44.2987" cy="89.5869" r="3" transform="rotate(-15 44.2987 89.5869)" fill="#F59999"/>
<circle cx="58.788" cy="85.7046" r="3" transform="rotate(-15 58.788 85.7046)" fill="#F59999"/>
<circle cx="73.2768" cy="81.8225" r="3" transform="rotate(-15 73.2768 81.8225)" fill="#F59999"/>
<circle cx="87.7655" cy="77.9402" r="3" transform="rotate(-15 87.7655 77.9402)" fill="#F59999"/>
<circle cx="102.254" cy="74.0578" r="3" transform="rotate(-15 102.254 74.0578)" fill="#F59999"/>
<circle cx="116.744" cy="70.1755" r="3" transform="rotate(-15 116.744 70.1755)" fill="#F59999"/>
<circle cx="131.232" cy="66.2932" r="3" transform="rotate(-15 131.232 66.2932)" fill="#F59999"/>
<circle cx="145.721" cy="62.4109" r="3" transform="rotate(-15 145.721 62.4109)" fill="#F59999"/>
<circle cx="160.21" cy="58.5288" r="3" transform="rotate(-15 160.21 58.5288)" fill="#F59999"/>
<circle cx="174.699" cy="54.6465" r="3" transform="rotate(-15 174.699 54.6465)" fill="#F59999"/>
<circle cx="189.188" cy="50.7641" r="3" transform="rotate(-15 189.188 50.7641)" fill="#F59999"/>
</g>
<g clip-path="url(#clip5)">
<circle cx="19.2035" cy="111.841" r="3" transform="rotate(-15 19.2035 111.841)" fill="#F59999"/>
<circle cx="33.6923" cy="107.958" r="3" transform="rotate(-15 33.6923 107.958)" fill="#F59999"/>
<circle cx="48.1811" cy="104.076" r="3" transform="rotate(-15 48.1811 104.076)" fill="#F59999"/>
<circle cx="62.6703" cy="100.194" r="3" transform="rotate(-15 62.6703 100.194)" fill="#F59999"/>
<circle cx="77.1591" cy="96.3115" r="3" transform="rotate(-15 77.1591 96.3115)" fill="#F59999"/>
<circle cx="91.6479" cy="92.4292" r="3" transform="rotate(-15 91.6479 92.4292)" fill="#F59999"/>
<circle cx="106.137" cy="88.5469" r="3" transform="rotate(-15 106.137 88.5469)" fill="#F59999"/>
<circle cx="120.626" cy="84.6645" r="3" transform="rotate(-15 120.626 84.6645)" fill="#F59999"/>
<circle cx="135.115" cy="80.7822" r="3" transform="rotate(-15 135.115 80.7822)" fill="#F59999"/>
<circle cx="149.603" cy="76.8999" r="3" transform="rotate(-15 149.603 76.8999)" fill="#F59999"/>
<circle cx="164.092" cy="73.0178" r="3" transform="rotate(-15 164.092 73.0178)" fill="#F59999"/>
<circle cx="178.581" cy="69.1355" r="3" transform="rotate(-15 178.581 69.1355)" fill="#F59999"/>
<circle cx="193.07" cy="65.2532" r="3" transform="rotate(-15 193.07 65.2532)" fill="#F59999"/>
</g>
<g clip-path="url(#clip6)">
<circle cx="23.0859" cy="126.329" r="3" transform="rotate(-15 23.0859 126.329)" fill="#F59999"/>
<circle cx="37.5746" cy="122.447" r="3" transform="rotate(-15 37.5746 122.447)" fill="#F59999"/>
<circle cx="52.0634" cy="118.565" r="3" transform="rotate(-15 52.0634 118.565)" fill="#F59999"/>
<circle cx="66.5527" cy="114.682" r="3" transform="rotate(-15 66.5527 114.682)" fill="#F59999"/>
<circle cx="81.0414" cy="110.8" r="3" transform="rotate(-15 81.0414 110.8)" fill="#F59999"/>
<circle cx="95.5302" cy="106.918" r="3" transform="rotate(-15 95.5302 106.918)" fill="#F59999"/>
<circle cx="110.019" cy="103.036" r="3" transform="rotate(-15 110.019 103.036)" fill="#F59999"/>
<circle cx="124.508" cy="99.1533" r="3" transform="rotate(-15 124.508 99.1533)" fill="#F59999"/>
<circle cx="138.997" cy="95.271" r="3" transform="rotate(-15 138.997 95.271)" fill="#F59999"/>
<circle cx="153.486" cy="91.3887" r="3" transform="rotate(-15 153.486 91.3887)" fill="#F59999"/>
<circle cx="167.975" cy="87.5066" r="3" transform="rotate(-15 167.975 87.5066)" fill="#F59999"/>
<circle cx="182.464" cy="83.6243" r="3" transform="rotate(-15 182.464 83.6243)" fill="#F59999"/>
<circle cx="196.953" cy="79.7419" r="3" transform="rotate(-15 196.953 79.7419)" fill="#F59999"/>
</g>
<g clip-path="url(#clip7)">
<circle cx="26.9682" cy="140.818" r="3" transform="rotate(-15 26.9682 140.818)" fill="#F59999"/>
<circle cx="41.457" cy="136.936" r="3" transform="rotate(-15 41.457 136.936)" fill="#F59999"/>
<circle cx="55.9457" cy="133.054" r="3" transform="rotate(-15 55.9457 133.054)" fill="#F59999"/>
<circle cx="70.435" cy="129.171" r="3" transform="rotate(-15 70.435 129.171)" fill="#F59999"/>
<circle cx="84.9237" cy="125.289" r="3" transform="rotate(-15 84.9237 125.289)" fill="#F59999"/>
<circle cx="99.4125" cy="121.407" r="3" transform="rotate(-15 99.4125 121.407)" fill="#F59999"/>
<circle cx="113.901" cy="117.525" r="3" transform="rotate(-15 113.901 117.525)" fill="#F59999"/>
<circle cx="128.391" cy="113.642" r="3" transform="rotate(-15 128.391 113.642)" fill="#F59999"/>
<circle cx="142.879" cy="109.76" r="3" transform="rotate(-15 142.879 109.76)" fill="#F59999"/>
<circle cx="157.368" cy="105.878" r="3" transform="rotate(-15 157.368 105.878)" fill="#F59999"/>
<circle cx="171.857" cy="101.996" r="3" transform="rotate(-15 171.857 101.996)" fill="#F59999"/>
<circle cx="186.346" cy="98.1133" r="3" transform="rotate(-15 186.346 98.1133)" fill="#F59999"/>
<circle cx="200.835" cy="94.2309" r="3" transform="rotate(-15 200.835 94.2309)" fill="#F59999"/>
</g>
<g clip-path="url(#clip8)">
<circle cx="30.85" cy="155.307" r="3" transform="rotate(-15 30.85 155.307)" fill="#F59999"/>
<circle cx="45.3388" cy="151.425" r="3" transform="rotate(-15 45.3388 151.425)" fill="#F59999"/>
<circle cx="59.8276" cy="147.542" r="3" transform="rotate(-15 59.8276 147.542)" fill="#F59999"/>
<circle cx="74.3168" cy="143.66" r="3" transform="rotate(-15 74.3168 143.66)" fill="#F59999"/>
<circle cx="88.8056" cy="139.778" r="3" transform="rotate(-15 88.8056 139.778)" fill="#F59999"/>
<circle cx="103.294" cy="135.896" r="3" transform="rotate(-15 103.294 135.896)" fill="#F59999"/>
<circle cx="117.783" cy="132.013" r="3" transform="rotate(-15 117.783 132.013)" fill="#F59999"/>
<circle cx="132.272" cy="128.131" r="3" transform="rotate(-15 132.272 128.131)" fill="#F59999"/>
<circle cx="146.761" cy="124.249" r="3" transform="rotate(-15 146.761 124.249)" fill="#F59999"/>
<circle cx="161.25" cy="120.366" r="3" transform="rotate(-15 161.25 120.366)" fill="#F59999"/>
<circle cx="175.739" cy="116.484" r="3" transform="rotate(-15 175.739 116.484)" fill="#F59999"/>
<circle cx="190.228" cy="112.602" r="3" transform="rotate(-15 190.228 112.602)" fill="#F59999"/>
<circle cx="204.717" cy="108.72" r="3" transform="rotate(-15 204.717 108.72)" fill="#F59999"/>
</g>
<g clip-path="url(#clip9)">
<circle cx="34.7323" cy="169.796" r="3" transform="rotate(-15 34.7323 169.796)" fill="#F59999"/>
<circle cx="49.2211" cy="165.914" r="3" transform="rotate(-15 49.2211 165.914)" fill="#F59999"/>
<circle cx="63.7099" cy="162.031" r="3" transform="rotate(-15 63.7099 162.031)" fill="#F59999"/>
<circle cx="78.1991" cy="158.149" r="3" transform="rotate(-15 78.1991 158.149)" fill="#F59999"/>
<circle cx="92.6879" cy="154.267" r="3" transform="rotate(-15 92.6879 154.267)" fill="#F59999"/>
<circle cx="107.177" cy="150.385" r="3" transform="rotate(-15 107.177 150.385)" fill="#F59999"/>
<circle cx="121.665" cy="146.502" r="3" transform="rotate(-15 121.665 146.502)" fill="#F59999"/>
<circle cx="136.155" cy="142.62" r="3" transform="rotate(-15 136.155 142.62)" fill="#F59999"/>
<circle cx="150.643" cy="138.738" r="3" transform="rotate(-15 150.643 138.738)" fill="#F59999"/>
<circle cx="165.132" cy="134.855" r="3" transform="rotate(-15 165.132 134.855)" fill="#F59999"/>
<circle cx="179.621" cy="130.973" r="3" transform="rotate(-15 179.621 130.973)" fill="#F59999"/>
<circle cx="194.11" cy="127.091" r="3" transform="rotate(-15 194.11 127.091)" fill="#F59999"/>
<circle cx="208.599" cy="123.209" r="3" transform="rotate(-15 208.599 123.209)" fill="#F59999"/>
</g>
<g clip-path="url(#clip10)">
<circle cx="38.6147" cy="184.285" r="3" transform="rotate(-15 38.6147 184.285)" fill="#F59999"/>
<circle cx="53.1034" cy="180.403" r="3" transform="rotate(-15 53.1034 180.403)" fill="#F59999"/>
<circle cx="67.5922" cy="176.52" r="3" transform="rotate(-15 67.5922 176.52)" fill="#F59999"/>
<circle cx="82.0815" cy="172.638" r="3" transform="rotate(-15 82.0815 172.638)" fill="#F59999"/>
<circle cx="96.5702" cy="168.756" r="3" transform="rotate(-15 96.5702 168.756)" fill="#F59999"/>
<circle cx="111.059" cy="164.874" r="3" transform="rotate(-15 111.059 164.874)" fill="#F59999"/>
<circle cx="125.548" cy="160.991" r="3" transform="rotate(-15 125.548 160.991)" fill="#F59999"/>
<circle cx="140.037" cy="157.109" r="3" transform="rotate(-15 140.037 157.109)" fill="#F59999"/>
<circle cx="154.526" cy="153.227" r="3" transform="rotate(-15 154.526 153.227)" fill="#F59999"/>
<circle cx="169.015" cy="149.344" r="3" transform="rotate(-15 169.015 149.344)" fill="#F59999"/>
<circle cx="183.503" cy="145.462" r="3" transform="rotate(-15 183.503 145.462)" fill="#F59999"/>
<circle cx="197.993" cy="141.58" r="3" transform="rotate(-15 197.993 141.58)" fill="#F59999"/>
<circle cx="212.481" cy="137.697" r="3" transform="rotate(-15 212.481 137.697)" fill="#F59999"/>
</g>
<g clip-path="url(#clip11)">
<circle cx="42.497" cy="198.774" r="3" transform="rotate(-15 42.497 198.774)" fill="#F59999"/>
<circle cx="56.9858" cy="194.892" r="3" transform="rotate(-15 56.9858 194.892)" fill="#F59999"/>
<circle cx="71.4745" cy="191.009" r="3" transform="rotate(-15 71.4745 191.009)" fill="#F59999"/>
<circle cx="85.9638" cy="187.127" r="3" transform="rotate(-15 85.9638 187.127)" fill="#F59999"/>
<circle cx="100.453" cy="183.245" r="3" transform="rotate(-15 100.453 183.245)" fill="#F59999"/>
<circle cx="114.941" cy="179.363" r="3" transform="rotate(-15 114.941 179.363)" fill="#F59999"/>
<circle cx="129.43" cy="175.48" r="3" transform="rotate(-15 129.43 175.48)" fill="#F59999"/>
<circle cx="143.919" cy="171.598" r="3" transform="rotate(-15 143.919 171.598)" fill="#F59999"/>
<circle cx="158.408" cy="167.716" r="3" transform="rotate(-15 158.408 167.716)" fill="#F59999"/>
<circle cx="172.897" cy="163.833" r="3" transform="rotate(-15 172.897 163.833)" fill="#F59999"/>
<circle cx="187.386" cy="159.951" r="3" transform="rotate(-15 187.386 159.951)" fill="#F59999"/>
<circle cx="201.875" cy="156.069" r="3" transform="rotate(-15 201.875 156.069)" fill="#F59999"/>
<circle cx="216.364" cy="152.187" r="3" transform="rotate(-15 216.364 152.187)" fill="#F59999"/>
</g>
<g clip-path="url(#clip12)">
<circle cx="46.3793" cy="213.263" r="3" transform="rotate(-15 46.3793 213.263)" fill="#F59999"/>
<circle cx="60.8681" cy="209.38" r="3" transform="rotate(-15 60.8681 209.38)" fill="#F59999"/>
<circle cx="75.3568" cy="205.498" r="3" transform="rotate(-15 75.3568 205.498)" fill="#F59999"/>
<circle cx="89.8461" cy="201.616" r="3" transform="rotate(-15 89.8461 201.616)" fill="#F59999"/>
<circle cx="104.335" cy="197.734" r="3" transform="rotate(-15 104.335 197.734)" fill="#F59999"/>
<circle cx="118.824" cy="193.851" r="3" transform="rotate(-15 118.824 193.851)" fill="#F59999"/>
<circle cx="133.312" cy="189.969" r="3" transform="rotate(-15 133.312 189.969)" fill="#F59999"/>
<circle cx="147.802" cy="186.087" r="3" transform="rotate(-15 147.802 186.087)" fill="#F59999"/>
<circle cx="162.29" cy="182.204" r="3" transform="rotate(-15 162.29 182.204)" fill="#F59999"/>
<circle cx="176.779" cy="178.322" r="3" transform="rotate(-15 176.779 178.322)" fill="#F59999"/>
<circle cx="191.268" cy="174.44" r="3" transform="rotate(-15 191.268 174.44)" fill="#F59999"/>
<circle cx="205.757" cy="170.558" r="3" transform="rotate(-15 205.757 170.558)" fill="#F59999"/>
<circle cx="220.246" cy="166.675" r="3" transform="rotate(-15 220.246 166.675)" fill="#F59999"/>
</g>
<g clip-path="url(#clip13)">
<circle cx="50.2616" cy="227.752" r="3" transform="rotate(-15 50.2616 227.752)" fill="#F59999"/>
<circle cx="64.7504" cy="223.869" r="3" transform="rotate(-15 64.7504 223.869)" fill="#F59999"/>
<circle cx="79.2392" cy="219.987" r="3" transform="rotate(-15 79.2392 219.987)" fill="#F59999"/>
<circle cx="93.7284" cy="216.105" r="3" transform="rotate(-15 93.7284 216.105)" fill="#F59999"/>
<circle cx="108.217" cy="212.223" r="3" transform="rotate(-15 108.217 212.223)" fill="#F59999"/>
<circle cx="122.706" cy="208.34" r="3" transform="rotate(-15 122.706 208.34)" fill="#F59999"/>
<circle cx="137.195" cy="204.458" r="3" transform="rotate(-15 137.195 204.458)" fill="#F59999"/>
<circle cx="151.684" cy="200.576" r="3" transform="rotate(-15 151.684 200.576)" fill="#F59999"/>
<circle cx="166.173" cy="196.693" r="3" transform="rotate(-15 166.173 196.693)" fill="#F59999"/>
<circle cx="180.662" cy="192.811" r="3" transform="rotate(-15 180.662 192.811)" fill="#F59999"/>
<circle cx="195.15" cy="188.929" r="3" transform="rotate(-15 195.15 188.929)" fill="#F59999"/>
<circle cx="209.64" cy="185.047" r="3" transform="rotate(-15 209.64 185.047)" fill="#F59999"/>
<circle cx="224.128" cy="181.164" r="3" transform="rotate(-15 224.128 181.164)" fill="#F59999"/>
</g>
</g>
<defs>
<clipPath id="clip0">
<rect width="200" height="200" fill="white" transform="translate(0 51.7637) rotate(-15)"/>
</clipPath>
<clipPath id="clip1">
<rect width="200" height="15" fill="white" transform="translate(0 51.7637) rotate(-15)"/>
</clipPath>
<clipPath id="clip2">
<rect width="200" height="15" fill="white" transform="translate(3.88232 66.2524) rotate(-15)"/>
</clipPath>
<clipPath id="clip3">
<rect width="200" height="15" fill="white" transform="translate(7.76465 80.7415) rotate(-15)"/>
</clipPath>
<clipPath id="clip4">
<rect width="200" height="15" fill="white" transform="translate(11.647 95.2302) rotate(-15)"/>
</clipPath>
<clipPath id="clip5">
<rect width="200" height="15" fill="white" transform="translate(15.5293 109.719) rotate(-15)"/>
</clipPath>
<clipPath id="clip6">
<rect width="200" height="15" fill="white" transform="translate(19.4116 124.208) rotate(-15)"/>
</clipPath>
<clipPath id="clip7">
<rect width="200" height="15" fill="white" transform="translate(23.2939 138.697) rotate(-15)"/>
</clipPath>
<clipPath id="clip8">
<rect width="200" height="15" fill="white" transform="translate(27.1758 153.186) rotate(-15)"/>
</clipPath>
<clipPath id="clip9">
<rect width="200" height="15" fill="white" transform="translate(31.0581 167.675) rotate(-15)"/>
</clipPath>
<clipPath id="clip10">
<rect width="200" height="15" fill="white" transform="translate(34.9404 182.164) rotate(-15)"/>
</clipPath>
<clipPath id="clip11">
<rect width="200" height="15" fill="white" transform="translate(38.8228 196.653) rotate(-15)"/>
</clipPath>
<clipPath id="clip12">
<rect width="200" height="15" fill="white" transform="translate(42.7051 211.141) rotate(-15)"/>
</clipPath>
<clipPath id="clip13">
<rect width="200" height="15" fill="white" transform="translate(46.5874 225.63) rotate(-15)"/>
</clipPath>
</defs>
</svg>
