<svg width="81" height="26" viewBox="0 0 81 26" fill="none" xmlns="http://www.w3.org/2000/svg">
<path d="M3.28516 17.9816C3.32197 17.3804 3.35878 16.4847 3.35878 15.6994V5H4.95387V10.5583H4.99068C5.55509 9.57669 6.58577 8.92638 8.00908 8.92638C10.2054 8.92638 11.7637 10.7546 11.7391 13.4417C11.7391 16.6074 9.75141 18.1779 7.77595 18.1779C6.49988 18.1779 5.4692 17.6871 4.8189 16.5092H4.76982L4.67166 17.9816H3.28516ZM4.95387 14.4356C4.95387 14.6319 4.99068 14.8405 5.02749 15.0245C5.33424 16.1411 6.26675 16.9018 7.44466 16.9018C9.12565 16.9018 10.1318 15.5276 10.1318 13.5031C10.1318 11.7239 9.21153 10.2147 7.49374 10.2147C6.40172 10.2147 5.37105 10.9632 5.03976 12.1902C5.00295 12.3742 4.95387 12.5951 4.95387 12.8528V14.4356Z" fill="#A60000"/>
<path d="M18.6717 17.9819L18.549 16.8653H18.5C18.0092 17.5647 17.0521 18.1782 15.7883 18.1782C13.9969 18.1782 13.0767 16.9144 13.0767 15.6383C13.0767 13.5034 14.9785 12.3255 18.4018 12.35V12.166C18.4018 11.4298 18.2055 10.1169 16.3895 10.1169C15.5675 10.1169 14.7086 10.3745 14.0828 10.7795L13.7147 9.72424C14.4509 9.24571 15.5061 8.93896 16.6227 8.93896C19.3343 8.93896 19.9846 10.7917 19.9846 12.5586V15.8715C19.9846 16.6445 20.0214 17.393 20.1319 17.9942L18.6717 17.9819ZM18.4263 13.4666C16.6717 13.4298 14.684 13.7365 14.684 15.4543C14.684 16.4972 15.3834 16.988 16.2055 16.988C17.3589 16.988 18.0828 16.2518 18.3405 15.5034C18.3895 15.3439 18.4263 15.1598 18.4263 14.988V13.4666Z" fill="#A60000"/>
<path d="M22.5859 5H24.1933V17.9816H22.5859V5Z" fill="#A60000"/>
<path d="M26.6838 16.3373C27.1624 16.6441 27.9967 16.9754 28.8065 16.9754C29.9722 16.9754 30.5243 16.3864 30.5243 15.6625C30.5243 14.8895 30.0704 14.4723 28.8802 14.0306C27.2851 13.4662 26.5366 12.5827 26.5366 11.5275C26.5366 10.1042 27.69 8.92627 29.5918 8.92627C30.4875 8.92627 31.2728 9.18394 31.7636 9.47842L31.3587 10.6441C31.0151 10.4232 30.3771 10.1287 29.5427 10.1287C28.598 10.1287 28.0581 10.6809 28.0581 11.3312C28.0581 12.0674 28.5857 12.3864 29.7391 12.8281C31.2728 13.4171 32.0581 14.1778 32.0581 15.503C32.0581 17.0613 30.8556 18.1533 28.7452 18.1533C27.7759 18.1533 26.8802 17.9202 26.2544 17.5521L26.6838 16.3373Z" fill="#A60000"/>
<path d="M39.0399 17.9819L38.9172 16.8653H38.8681C38.3773 17.5647 37.4203 18.1782 36.1565 18.1782C34.3651 18.1782 33.4448 16.9144 33.4448 15.6383C33.4448 13.5034 35.3467 12.3255 38.77 12.35V12.166C38.77 11.4298 38.5737 10.1169 36.7577 10.1169C35.9356 10.1169 35.0767 10.3745 34.451 10.7795L34.0829 9.72424C34.8191 9.24571 35.8743 8.93896 36.9908 8.93896C39.7025 8.93896 40.3528 10.7917 40.3528 12.5586V15.8715C40.3528 16.6445 40.3896 17.393 40.5 17.9942L39.0399 17.9819ZM38.8068 13.4666C37.0522 13.4298 35.0645 13.7365 35.0645 15.4543C35.0645 16.4972 35.7638 16.988 36.5859 16.988C37.7393 16.988 38.4632 16.2518 38.7209 15.5034C38.77 15.3439 38.8068 15.1598 38.8068 14.988V13.4666Z" fill="#A60000"/>
<path d="M42.9535 11.5275C42.9535 10.6072 42.9412 9.85878 42.8799 9.13486H44.2909L44.3645 10.5582H44.4259C44.9167 9.71154 45.7388 8.92627 47.1989 8.92627C48.4014 8.92627 49.3216 9.66247 49.702 10.7054H49.7388C50.0087 10.2146 50.3646 9.83425 50.7327 9.55204C51.2603 9.14713 51.8492 8.92627 52.6959 8.92627C53.8615 8.92627 55.6038 9.69927 55.6038 12.7668V17.9815H54.0333V12.9753C54.0333 11.2698 53.4075 10.2514 52.1192 10.2514C51.1989 10.2514 50.4873 10.9263 50.2173 11.7115C50.1437 11.9324 50.0946 12.2269 50.0946 12.5214V17.9938H48.5241V12.6931C48.5241 11.2821 47.8983 10.2637 46.6713 10.2637C45.6652 10.2637 44.929 11.0735 44.6836 11.8711C44.5977 12.1042 44.5609 12.3864 44.5609 12.6563V17.9938H42.9535V11.5275Z" fill="#A60000"/>
<path d="M60.0092 6.64383C60.0215 7.19598 59.6289 7.62543 58.9908 7.62543C58.4264 7.62543 58.0215 7.18371 58.0215 6.64383C58.0215 6.07942 58.4387 5.6377 59.0276 5.6377C59.6166 5.6377 60.0092 6.07942 60.0092 6.64383ZM58.2055 17.9813V9.13464H59.8129V17.9813H58.2055Z" fill="#A60000"/>
<path d="M68.5245 16.6199H68.4876C68.0091 17.5034 67.0275 18.1905 65.6042 18.1905C63.5429 18.1905 61.8496 16.3991 61.8496 13.712C61.8496 10.3991 63.9846 8.93896 65.8496 8.93896C67.2238 8.93896 68.1318 9.61381 68.5735 10.4727H68.6103L68.6594 9.13528H70.1932C70.1564 9.88374 70.1441 10.6568 70.1441 11.5647V21.6015H68.5367L68.5245 16.6199ZM68.5245 12.7181C68.5245 12.4972 68.5122 12.2396 68.4508 12.0433C68.2177 11.0617 67.3588 10.215 66.1441 10.215C64.4754 10.215 63.4692 11.6261 63.4692 13.6138C63.4692 15.3684 64.3159 16.9021 66.0827 16.9021C67.1257 16.9021 68.0214 16.2641 68.3895 15.1475C68.4631 14.9267 68.5122 14.6199 68.5122 14.3745V12.7181H68.5245Z" fill="#A60000"/>
<path d="M76.9044 10.9141C76.9044 12.0429 76.0087 12.9386 74.8553 12.9386C73.7142 12.9386 72.7939 12.0429 72.7939 10.9141C72.7939 9.80977 73.7142 8.91406 74.8553 8.91406C76.0087 8.91406 76.9044 9.80977 76.9044 10.9141ZM73.3093 10.9141C73.3093 11.8098 73.9719 12.5092 74.8676 12.5092C75.751 12.5092 76.389 11.7975 76.389 10.9263C76.389 10.0306 75.7387 9.31897 74.8553 9.31897C73.9719 9.31897 73.3093 10.0429 73.3093 10.9141ZM74.5363 11.9693H74.07V9.96928C74.2541 9.93247 74.5117 9.90793 74.843 9.90793C75.2234 9.90793 75.3952 9.96928 75.5424 10.0552C75.6528 10.1411 75.7387 10.3006 75.7387 10.4969C75.7387 10.7177 75.5669 10.8895 75.3215 10.9631V10.9877C75.5179 11.0613 75.6283 11.2085 75.6896 11.4785C75.751 11.7852 75.7878 11.9079 75.8369 11.9815H75.3338C75.2725 11.9079 75.2357 11.7239 75.1743 11.4908C75.1375 11.2699 75.0148 11.1717 74.7571 11.1717H74.5363V11.9693ZM74.5485 10.8282H74.7694C75.0271 10.8282 75.2357 10.7423 75.2357 10.5337C75.2357 10.3496 75.1007 10.2269 74.8062 10.2269C74.6835 10.2269 74.5976 10.2392 74.5485 10.2515V10.8282Z" fill="#A60000"/>
<rect x="0.785156" y="0.5" width="79" height="25" rx="4.5" stroke="#A60000"/>
</svg>
