<svg width="61" height="59" viewBox="0 0 61 59" fill="none" xmlns="http://www.w3.org/2000/svg">
<path d="M45.2852 7.375H15.2852C11.1427 7.375 7.78516 10.6765 7.78516 14.75V44.25C7.78516 48.3235 11.1427 51.625 15.2852 51.625H45.2852C49.4277 51.625 52.7852 48.3235 52.7852 44.25V14.75C52.7852 10.6765 49.4277 7.375 45.2852 7.375Z" fill="#50E6FF"/>
<path d="M45.2852 49.1668H15.2852C12.5239 49.1668 10.2852 46.9654 10.2852 44.2502V14.7502C10.2852 12.0349 12.5239 9.8335 15.2852 9.8335H45.2852C48.0464 9.8335 50.2852 12.0349 50.2852 14.7502V44.2502C50.2852 46.9654 48.0464 49.1668 45.2852 49.1668Z" fill="#092347"/>
<path d="M18.4194 18.8945C18.4194 18.7642 18.5157 18.6548 18.6469 18.6401C19.1469 18.586 20.5419 18.4741 23.5182 18.4741C28.0032 18.4741 31.1444 20.2232 31.1444 25.0096C31.1444 29.3264 28.1557 31.8597 23.3332 31.8597C23.0519 31.8597 22.7707 31.8597 21.8132 31.8597V39.0897C21.8132 39.2102 21.7132 39.3085 21.5907 39.3085H18.6432C18.5207 39.3085 18.4207 39.2102 18.4207 39.0897V18.8945H18.4194ZM21.8132 28.82C21.8132 28.82 23.2969 28.8298 23.6319 28.8298C26.3857 28.8298 27.6382 27.2246 27.6382 25.0735C27.6382 23.0589 26.4207 21.488 23.8757 21.488C22.8269 21.488 21.8144 21.547 21.8144 21.547V28.82H21.8132Z" fill="white"/>
<path d="M32.98 35.6088C32.98 35.492 33.1087 35.4195 33.2075 35.4834C33.8375 35.8977 35.1162 36.6069 37.0962 36.6069C38.3887 36.6069 39.2062 36.0599 39.2062 35.1675C39.2062 34.1793 37.825 33.4627 36.685 32.8542C35.5512 32.2495 33.005 31.2784 33.005 28.1514C33.005 25.3797 35.2575 23.708 38.325 23.708C39.5 23.708 40.7962 23.8875 41.6712 24.2009C41.815 24.2525 41.9025 24.3902 41.9025 24.5414V27.3574C41.9025 27.4729 41.7787 27.5479 41.68 27.484C41.1312 27.1312 39.9212 26.5916 38.2562 26.5916C36.87 26.5916 36.26 27.2554 36.26 27.9314C36.26 29.1163 37.865 29.6117 39.305 30.4426C41.5512 31.6718 42.5925 32.8727 42.5925 34.7545C42.5925 37.8324 40.2587 39.5606 37.0975 39.5606C35.465 39.5606 33.93 39.2103 33.145 38.7407C33.0362 38.6756 32.9812 38.5576 32.9812 38.4322L32.98 35.6088Z" fill="white"/>
</svg>
