<svg width="606" height="784" viewBox="0 0 606 784" fill="none" xmlns="http://www.w3.org/2000/svg">
<path d="M302.754 761L312.241 770.487L309.531 773.197L297.333 761L309.531 748.802L312.241 751.512L302.754 761Z" fill="#373737"/>
<path d="M154.311 0.891926C154.527 0.720457 154.563 0.405981 154.392 0.189527C154.221 -0.0269284 153.906 -0.063396 153.69 0.108074L154.311 0.891926ZM353.5 534L353.635 533.519L353.5 534ZM153.69 0.108074C150.36 2.74545 147.093 5.37466 143.887 7.99569L144.52 8.76989C147.722 6.15217 150.985 3.52617 154.311 0.891926L153.69 0.108074ZM125.38 23.6234C119.031 29.1685 112.955 34.6758 107.148 40.1451L107.833 40.8731C113.631 35.4128 119.697 29.9138 126.038 24.3766L125.38 23.6234ZM89.9296 57.0421C84.0511 63.0655 78.4976 69.041 73.2591 74.9682L74.0084 75.6304C79.2355 69.7161 84.7778 63.7527 90.6453 57.7405L89.9296 57.0421ZM57.5497 93.7827C52.3636 100.381 47.5686 106.918 43.1502 113.391L43.9762 113.955C48.3813 107.501 53.1631 100.983 58.336 94.4006L57.5497 93.7827ZM30.2434 133.953C26.0671 141.248 22.3696 148.458 19.1291 155.583L20.0394 155.997C23.2664 148.902 26.9496 141.719 31.1113 134.45L30.2434 133.953ZM10.2271 178.293C7.59774 186.291 5.54444 194.174 4.03385 201.941L5.01546 202.132C6.51782 194.408 8.5604 186.565 11.1771 178.605L10.2271 178.293ZM1.02175 226.21C0.58181 234.497 0.758314 242.64 1.50619 250.636L2.50184 250.543C1.75849 242.595 1.583 234.501 2.02035 226.263L1.02175 226.21ZM5.54515 274.708C7.46738 282.62 9.94477 290.375 12.9279 297.969L13.8587 297.604C10.8914 290.05 8.42794 282.338 6.51688 274.472L5.54515 274.708ZM23.2516 320.097C27.0929 327.193 31.3687 334.135 36.0332 340.92L36.8573 340.354C32.2115 333.596 27.9544 326.684 24.131 319.621L23.2516 320.097ZM50.788 360.374C55.9274 366.561 61.3806 372.605 67.1079 378.502L67.8253 377.806C62.1148 371.925 56.679 365.901 51.5573 359.735L50.788 360.374ZM84.6919 395.415C90.6855 400.816 96.8972 406.081 103.291 411.209L103.917 410.429C97.5368 405.312 91.3398 400.059 85.3614 394.672L84.6919 395.415ZM122.715 425.981C129.285 430.727 135.996 435.34 142.815 439.819L143.364 438.984C136.556 434.512 129.858 429.907 123.3 425.17L122.715 425.981ZM163.479 452.802C170.461 457 177.519 461.065 184.619 464.993L185.103 464.118C178.013 460.195 170.966 456.137 163.994 451.945L163.479 452.802ZM206.167 476.448C213.471 480.178 220.784 483.766 228.072 487.208L228.499 486.304C221.22 482.866 213.916 479.283 206.622 475.557L206.167 476.448ZM250.29 497.304C257.869 500.615 265.381 503.764 272.785 506.75L273.159 505.822C265.764 502.84 258.26 499.694 250.69 496.387L250.29 497.304ZM295.519 515.543C303.358 518.447 311.015 521.151 318.437 523.654L318.757 522.706C311.344 520.207 303.696 517.506 295.867 514.606L295.519 515.543ZM341.799 531.114C345.756 532.305 349.614 533.427 353.365 534.481L353.635 533.519C349.891 532.466 346.038 531.346 342.088 530.157L341.799 531.114ZM353.365 534.481C357.666 535.69 361.905 536.901 366.083 538.113L366.361 537.153C362.181 535.94 357.939 534.728 353.635 533.519L353.365 534.481ZM390.433 545.415C398.981 548.064 407.245 550.72 415.228 553.381L415.544 552.432C407.554 549.769 399.284 547.111 390.729 544.459L390.433 545.415ZM439.631 561.839C447.996 564.857 456.01 567.878 463.68 570.9L464.046 569.97C456.367 566.944 448.344 563.919 439.97 560.898L439.631 561.839ZM487.402 580.716C495.661 584.312 503.443 587.904 510.76 591.486L511.199 590.588C503.868 586.998 496.072 583.401 487.801 579.799L487.402 580.716ZM533.596 603.469C541.628 608.006 548.925 612.518 555.512 616.995L556.074 616.168C549.462 611.674 542.141 607.147 534.087 602.598L533.596 603.469ZM575.674 632.466C582.942 638.869 588.751 645.163 593.187 651.315L593.999 650.731C589.51 644.506 583.647 638.158 576.335 631.716L575.674 632.466ZM603.689 674.341C605.261 683.018 603.944 691.29 600.008 699.056L600.9 699.508C604.932 691.555 606.286 683.062 604.673 674.163L603.689 674.341ZM583.677 718.339C577.666 723.227 570.418 727.803 562.031 732.02L562.481 732.914C570.919 728.67 578.23 724.057 584.308 719.114L583.677 718.339ZM538.247 741.969C530.622 744.629 522.417 747.069 513.674 749.271L513.919 750.24C522.687 748.032 530.921 745.584 538.576 742.913L538.247 741.969ZM488.391 754.695C480.272 756.162 471.804 757.449 463.011 758.547L463.135 759.54C471.945 758.439 480.431 757.149 488.569 755.679L488.391 754.695ZM437.431 761.129C429.096 761.781 420.522 762.275 411.729 762.605L411.766 763.604C420.573 763.274 429.16 762.779 437.509 762.126L437.431 761.129ZM385.977 763.092C377.558 763.1 368.969 762.964 360.223 762.679L360.19 763.678C368.947 763.964 377.548 764.1 385.978 764.092L385.977 763.092ZM334.495 761.431C330.208 761.156 325.889 760.847 321.54 760.502L321.46 761.498C325.815 761.844 330.139 762.154 334.431 762.429L334.495 761.431Z" fill="black"/>
</svg>
