<svg width="733" height="854" viewBox="0 0 733 854" fill="none" xmlns="http://www.w3.org/2000/svg">
<path d="M525.785 0.589599C525.558 0.431863 525.247 0.487736 525.089 0.714394C524.931 0.941053 524.987 1.25267 525.214 1.4104L525.785 0.589599ZM422 534L421.977 534.499L422 534ZM327.968 828.501C323.553 828.786 319.179 829.033 314.849 829.243L314.897 830.242C319.233 830.031 323.612 829.784 328.032 829.499L327.968 828.501ZM289.376 830.065C280.532 830.203 271.88 830.181 263.424 830.005L263.403 831.005C271.872 831.181 280.535 831.203 289.392 831.064L289.376 830.065ZM237.745 828.974C229.034 828.448 220.553 827.753 212.304 826.896L212.201 827.891C220.465 828.749 228.96 829.446 237.685 829.972L237.745 828.974ZM186.755 823.623C177.991 822.278 169.526 820.74 161.362 819.021L161.156 820C169.339 821.722 177.822 823.264 186.603 824.611L186.755 823.623ZM136.362 812.948C127.803 810.574 119.638 807.984 111.869 805.198L111.532 806.139C119.324 808.934 127.513 811.531 136.095 813.912L136.362 812.948ZM88.0945 795.512C79.9725 791.766 72.4063 787.778 65.4021 783.581L64.8881 784.439C71.9251 788.655 79.5231 792.66 87.6757 796.42L88.0945 795.512ZM44.3923 769.06C37.3361 763.408 31.1324 757.496 25.7914 751.383L25.0384 752.041C30.4215 758.203 36.6687 764.155 43.7672 769.841L44.3923 769.06ZM11.224 730.39C7.0995 722.556 4.24828 714.523 2.6875 706.392L1.70543 706.58C3.28589 714.814 6.1716 722.94 10.3391 730.856L11.224 730.39ZM2.00374 680.965C3.1213 672.799 5.52827 664.633 9.24736 656.564L8.33918 656.145C4.5811 664.299 2.14468 672.56 1.01298 680.829L2.00374 680.965ZM22.6872 634.841C27.6532 628.513 33.4948 622.308 40.224 616.28L39.5568 615.536C32.788 621.599 26.9056 627.846 21.9005 634.224L22.6872 634.841ZM60.5 600.515C67.2441 595.929 74.5759 591.49 82.5014 587.229L82.0278 586.348C74.0739 590.625 66.7122 595.081 59.9377 599.688L60.5 600.515ZM105.603 576.06C113.133 572.786 121.081 569.654 129.451 566.68L129.116 565.738C120.726 568.719 112.756 571.86 105.204 575.143L105.603 576.06ZM153.868 558.814C161.848 556.49 170.151 554.297 178.779 552.247L178.548 551.274C169.905 553.328 161.585 555.525 153.588 557.854L153.868 558.814ZM204.174 546.816C212.277 545.265 220.631 543.831 229.238 542.523L229.088 541.534C220.469 542.844 212.102 544.28 203.986 545.834L204.174 546.816ZM254.686 539.111C263.108 538.127 271.747 537.257 280.605 536.505L280.521 535.509C271.652 536.261 263.002 537.133 254.57 538.118L254.686 539.111ZM305.892 534.723C314.332 534.245 322.955 533.871 331.761 533.604L331.731 532.604C322.916 532.871 314.284 533.246 305.835 533.724L305.892 534.723ZM357.347 533.139C365.778 533.086 374.366 533.127 383.11 533.267L383.126 532.267C374.374 532.127 365.779 532.086 357.341 532.139L357.347 533.139ZM408.802 533.948C413.157 534.108 417.549 534.292 421.977 534.499L422.023 533.501C417.592 533.293 413.197 533.109 408.839 532.949L408.802 533.948ZM421.977 534.499C426.183 534.697 430.342 534.858 434.452 534.983L434.483 533.983C430.378 533.858 426.225 533.698 422.023 533.501L421.977 534.499ZM458.542 535.308C466.934 535.274 475.11 535.081 483.072 534.733L483.028 533.734C475.08 534.081 466.918 534.274 458.538 534.308L458.542 535.308ZM507.207 533.156C515.451 532.43 523.442 531.525 531.184 530.448L531.046 529.457C523.321 530.532 515.347 531.435 507.12 532.16L507.207 533.156ZM555.34 526.377C563.555 524.737 571.452 522.883 579.04 520.826L578.779 519.86C571.214 521.912 563.338 523.761 555.144 525.397L555.34 526.377ZM602.21 513.579C610.087 510.762 617.573 507.695 624.677 504.393L624.256 503.486C617.181 506.775 609.723 509.83 601.873 512.637L602.21 513.579ZM646.15 493.024C653.312 488.717 659.993 484.126 666.204 479.273L665.589 478.485C659.41 483.312 652.763 487.88 645.634 492.167L646.15 493.024ZM684.323 463.054C690.083 457.133 695.293 450.924 699.97 444.453L699.16 443.868C694.512 450.298 689.333 456.471 683.606 462.357L684.323 463.054ZM712.703 423.749C716.434 416.527 719.613 409.059 722.26 401.376L721.314 401.051C718.683 408.689 715.523 416.112 711.814 423.29L712.703 423.749ZM728.592 377.897C730.161 370.031 731.246 361.992 731.864 353.811L730.867 353.736C730.252 361.879 729.172 369.877 727.611 377.701L728.592 377.897ZM732.36 329.504C732.101 321.518 731.44 313.429 730.394 305.264L729.402 305.391C730.445 313.526 731.103 321.583 731.36 329.536L732.36 329.504ZM726.271 281.294C724.593 273.478 722.586 265.616 720.263 257.728L719.304 258.01C721.62 265.876 723.621 273.714 725.294 281.504L726.271 281.294ZM712.6 234.651C709.825 227.138 706.779 219.621 703.471 212.117L702.556 212.52C705.856 220.006 708.895 227.505 711.662 234.997L712.6 234.651ZM693.032 190.162C689.384 183.012 685.506 175.89 681.408 168.811L680.543 169.312C684.632 176.376 688.501 183.483 692.141 190.617L693.032 190.162ZM668.702 148.085C664.327 141.331 659.756 134.632 654.997 128.003L654.184 128.586C658.934 135.202 663.497 141.888 667.863 148.629L668.702 148.085ZM640.361 108.586C635.359 102.259 630.187 96.0122 624.852 89.8586L624.096 90.5136C629.421 96.6558 634.584 102.891 639.576 109.207L640.361 108.586ZM608.518 71.8466C602.96 65.9858 597.253 60.2283 591.406 54.5869L590.711 55.3065C596.548 60.9376 602.245 66.6846 607.793 72.5347L608.518 71.8466ZM573.547 38.1112C567.481 32.7601 561.283 27.5354 554.963 22.4497L554.336 23.2288C560.644 28.305 566.83 33.5199 572.886 38.8612L573.547 38.1112ZM535.68 7.65016C532.41 5.25849 529.111 2.90446 525.785 0.589599L525.214 1.4104C528.534 3.72076 531.826 6.07024 535.09 8.45732L535.68 7.65016Z" fill="black"/>
<path d="M340.338 824.587L328.719 817.879L330.635 814.559L345.574 823.184L336.949 838.123L333.63 836.207L340.338 824.587Z" fill="#373737"/>
</svg>
