<svg width="81" height="80" viewBox="0 0 81 80" fill="none" xmlns="http://www.w3.org/2000/svg">
<g clip-path="url(#clip0)">
<path d="M50.9627 68.3489V61.9321H29.6081V68.3489C29.6967 73.6909 26.6597 78.8282 26.6597 78.8282H53.9112C53.9112 78.8282 50.8741 73.691 50.9627 68.3489Z" fill="#ACACAC"/>
<path d="M29.6074 63.1978H50.9626V66.3714H29.6074V63.1978Z" fill="#9C9C9C"/>
<path d="M77.7405 63.1985H2.82941C1.76592 63.1985 0.903809 62.3364 0.903809 61.2729V15.2195C0.903809 14.1561 1.76592 13.2939 2.82941 13.2939H77.7405C78.804 13.2939 79.6661 14.1561 79.6661 15.2195V61.273C79.6661 62.3364 78.804 63.1985 77.7405 63.1985Z" fill="#ACACAC"/>
<path d="M79.6658 15.2198V61.2735C79.6658 62.3367 78.8042 63.1983 77.7394 63.1983H74.5674C75.6306 63.1983 76.4922 62.3367 76.4922 61.2735V15.2198C76.4922 14.1567 75.6306 13.2935 74.5674 13.2935H77.7394C78.8042 13.2935 79.6658 14.1567 79.6658 15.2198Z" fill="#9C9C9C"/>
<path d="M7.03369 54.0042V20.7242C7.03369 19.7482 7.78721 18.957 8.71682 18.957H71.8528C72.7824 18.957 73.5359 19.7482 73.5359 20.7242V54.0042H7.03369Z" fill="#C4E2FF"/>
<path d="M73.5369 20.7242V54.004H70.3633V20.7242C70.3633 19.7483 69.6096 18.9565 68.6797 18.9565H71.8533C72.7831 18.9565 73.5369 19.7483 73.5369 20.7242Z" fill="#A5D5F9"/>
<path d="M58.3974 79.9998H22.1742C21.5271 79.9998 21.0024 79.4751 21.0024 78.828C21.0024 78.1809 21.5271 77.6562 22.1742 77.6562H58.3974C59.0445 77.6562 59.5691 78.1809 59.5691 78.828C59.5691 79.4751 59.0445 79.9998 58.3974 79.9998Z" fill="#5A5A5A"/>
<path d="M66.2827 54.0048H14.2866V1.29367C14.2866 0.579672 14.8655 0.000976562 15.5793 0.000976562H64.9898C65.7038 0.000976562 66.2825 0.579829 66.2825 1.29367V54.0048H66.2827Z" fill="#EAF6FF"/>
<path d="M66.2833 1.29332V54.0051H63.1097V1.29332C63.1097 0.579321 62.5306 0 61.8164 0H64.99C65.7042 0 66.2833 0.579164 66.2833 1.29332Z" fill="#D8ECFE"/>
<path d="M33.9968 8.49902C32.4657 8.49902 31.2246 9.74016 31.2246 11.2713V22.1327C31.2246 22.5294 31.2246 23.2676 29.772 23.9991C29.3699 24.2016 28.9268 24.3 28.4178 24.3C28.4161 24.3 28.4142 24.3 28.4126 24.3C27.8714 24.2994 27.4059 24.1696 26.9887 23.903C25.8799 23.1947 25.7896 22.6874 25.7896 22.1441V11.2713C25.7896 9.74016 24.5485 8.49902 23.0174 8.49902C21.4863 8.49902 20.2451 9.74016 20.2451 11.2713V22.1443C20.2451 24.8184 21.5097 26.9823 24.0037 28.5756C25.3184 29.4155 26.7992 29.8426 28.4053 29.8448H28.4178C29.7941 29.8448 31.0888 29.5442 32.2662 28.9513C35.1701 27.489 36.7695 25.0673 36.7695 22.1329V11.2714C36.769 9.74016 35.5279 8.49902 33.9968 8.49902Z" fill="#97D729"/>
<path d="M59.7606 25.5081L54.5227 18.6062L58.8785 12.8294C59.8003 11.6069 59.5566 9.86859 58.3341 8.9468C57.1112 8.02454 55.3731 8.26874 54.4514 9.49128L51.0393 14.0165L47.5997 9.4844C46.674 8.26483 44.935 8.02657 43.7154 8.95195C42.4957 9.87765 42.2574 11.6167 43.183 12.8363L47.5702 18.6171L42.5799 25.2354C41.6581 26.458 41.9018 28.1962 43.1244 29.118C43.6242 29.495 44.2101 29.6769 44.7914 29.6769C45.6318 29.6769 46.4622 29.2963 47.0071 28.5736L51.0536 23.207L55.3439 28.8601C55.8893 29.5786 56.7169 29.9566 57.5543 29.9566C58.1383 29.9566 58.7271 29.7727 59.2282 29.3925C60.4479 28.4667 60.6863 26.7276 59.7606 25.5081Z" fill="#97D729"/>
<path d="M36.7691 11.2706V22.1323C36.7691 25.0678 35.1711 27.4893 32.2658 28.9507C31.0899 29.5441 29.7951 29.844 28.4178 29.844H28.4052C27.899 29.8425 27.4054 29.8012 26.9263 29.7172C27.7418 29.5759 28.5194 29.3205 29.2509 28.9507C32.1562 27.4893 33.7542 25.0678 33.7542 22.1323V11.2706C33.7542 10.2948 33.2511 9.43782 32.4895 8.94443C32.9227 8.66196 33.44 8.49854 33.997 8.49854C35.5281 8.49854 36.7691 9.73936 36.7691 11.2706Z" fill="#8BC727"/>
<path d="M59.2289 29.3921C58.7276 29.773 58.1389 29.957 57.5549 29.957C57.0249 29.957 56.4981 29.8047 56.0458 29.5095C56.103 29.473 56.1585 29.4335 56.2141 29.3921C57.4343 28.467 57.6724 26.7278 56.7473 25.5076L51.942 19.1768C51.6861 18.8394 51.6853 18.3732 51.9401 18.0351L55.865 12.8291C56.787 11.6073 56.5426 9.8681 55.3207 8.94616C55.2668 8.90647 55.2128 8.86835 55.1573 8.83351C56.1063 8.21779 57.3788 8.22419 58.3356 8.94616C59.5574 9.8681 59.8019 11.6072 58.8799 12.8291L54.5242 18.6067L59.7622 25.5076C60.6872 26.7278 60.4491 28.467 59.2289 29.3921Z" fill="#8BC727"/>
<path d="M60.324 37.1341H20.2445C19.5974 37.1341 19.0728 36.6094 19.0728 35.9623C19.0728 35.3152 19.5974 34.7905 20.2445 34.7905H60.324C60.9712 34.7905 61.4958 35.3152 61.4958 35.9623C61.4958 36.6094 60.9712 37.1341 60.324 37.1341Z" fill="#96CCED"/>
<path d="M60.324 41.9617H20.2445C19.5974 41.9617 19.0728 41.4371 19.0728 40.7899C19.0728 40.1428 19.5974 39.6182 20.2445 39.6182H60.324C60.9712 39.6182 61.4958 40.1428 61.4958 40.7899C61.4958 41.4371 60.9712 41.9617 60.324 41.9617Z" fill="#96CCED"/>
<path d="M60.324 46.7893H20.2445C19.5974 46.7893 19.0728 46.2647 19.0728 45.6176C19.0728 44.9704 19.5974 44.4458 20.2445 44.4458H60.324C60.9712 44.4458 61.4958 44.9704 61.4958 45.6176C61.4958 46.2647 60.9712 46.7893 60.324 46.7893Z" fill="#96CCED"/>
<path d="M79.6661 54.0044V61.2736C79.6661 62.3367 78.8045 63.1984 77.7397 63.1984H2.83019C1.76545 63.1984 0.903809 62.3367 0.903809 61.2736V54.0044H79.6661Z" fill="#5A5A5A"/>
<path d="M79.6658 54.0049V61.274C79.6658 62.3372 78.8042 63.1989 77.7394 63.1989H74.5674C75.6306 63.1989 76.4922 62.3372 76.4922 61.274V54.0049H79.6658Z" fill="#444444"/>
<path d="M42.6652 59.7732H37.9047C37.2575 59.7732 36.7329 59.2486 36.7329 58.6014C36.7329 57.9543 37.2575 57.4297 37.9047 57.4297H42.6652C43.3123 57.4297 43.8369 57.9543 43.8369 58.6014C43.8369 59.2486 43.3123 59.7732 42.6652 59.7732Z" fill="#333333"/>
</g>
<defs>
<clipPath id="clip0">
<rect width="80" height="80" fill="white" transform="translate(0.285156)"/>
</clipPath>
</defs>
</svg>
