<svg width="81" height="80" viewBox="0 0 81 80" fill="none" xmlns="http://www.w3.org/2000/svg">
<g clip-path="url(#clip0)">
<path d="M28.5664 63.4375H52.0039V77.6562H28.5664V63.4375Z" fill="#D8D8FC"/>
<path d="M40.2852 63.4375H52.0039V77.6562H40.2852V63.4375Z" fill="#A3A3D1"/>
<path d="M80.2852 0V56.25L75.5977 60.9375H4.97266L0.285156 56.25V0H80.2852Z" fill="#32393F"/>
<path d="M80.2852 0V56.25L75.5977 60.9375H40.2852V0H80.2852Z" fill="#32393F"/>
<path d="M4.97266 4.6875H75.5977V51.5625H4.97266V4.6875Z" fill="#FFD396"/>
<path d="M40.2852 4.6875H75.5977V51.5625H40.2852V4.6875Z" fill="#FFB64C"/>
<path d="M19.1914 75.3125H61.3789V80H19.1914V75.3125Z" fill="#F2F2FC"/>
<path d="M40.2852 75.3125H61.3789V80H40.2852V75.3125Z" fill="#D8D8FC"/>
<path d="M52.2854 35.1562L47.3165 46.875L41.7385 51.5625H38.832L33.254 46.875L28.2852 35.1562L37.6602 16.4062H42.9104L52.2854 35.1562Z" fill="#F2F2FC"/>
<path d="M52.2853 35.1562L47.3164 46.875L41.7384 51.5625H40.2852V16.4062H42.9103L52.2853 35.1562Z" fill="#D8D8FC"/>
<path d="M37.9414 16.4062H42.6289V37.5H37.9414V16.4062Z" fill="#D8D8FC"/>
<path d="M40.2852 16.4062H42.6289V37.5H40.2852V16.4062Z" fill="#A3A3D1"/>
<path d="M21.5352 14.0625H59.0352V18.75H21.5352V14.0625Z" fill="#575F64"/>
<path d="M40.2852 14.0625H59.0352V18.75H40.2852V14.0625Z" fill="#32393F"/>
<path d="M23.8789 23.4375H9.66016V9.375H23.8789V23.4375Z" fill="#FF641A"/>
<path d="M70.9102 23.4375H56.6914V9.375H70.9102V23.4375Z" fill="#F03800"/>
<path d="M33.2539 46.875H47.3164V60.9375H33.2539V46.875Z" fill="#FF641A"/>
<path d="M40.2852 46.875H47.3164V60.9375H40.2852V46.875Z" fill="#F03800"/>
<path d="M0.285156 56.25H80.2852V65.7812H0.285156V56.25Z" fill="#F2F2FC"/>
<path d="M40.2852 56.25H80.2852V65.7812H40.2852V56.25Z" fill="#D8D8FC"/>
</g>
<defs>
<clipPath id="clip0">
<rect width="80" height="80" fill="white" transform="translate(0.285156)"/>
</clipPath>
</defs>
</svg>
