<svg width="93" height="116" viewBox="0 0 93 116" fill="none" xmlns="http://www.w3.org/2000/svg">
<rect x="64.5791" y="3.14551" width="65.8613" height="65.8613" rx="10" transform="rotate(75 64.5791 3.14551)" fill="white"/>
<path d="M65.9302 94.7075C67.3596 100.042 64.1349 105.691 58.6169 105.46C57.6419 105.419 56.6677 105.335 55.697 105.207C51.4094 104.643 47.2751 103.239 43.5299 101.077C39.7848 98.9147 36.5022 96.036 33.8696 92.6051C31.237 89.1743 29.306 85.2585 28.1867 81.0813C27.0674 76.9041 26.7819 72.5474 27.3463 68.2599C27.9108 63.9724 29.3142 59.838 31.4765 56.0929C33.6387 52.3477 36.5175 49.0652 39.9484 46.4326C40.7251 45.8365 41.5267 45.2765 42.3506 44.7536C47.0138 41.7944 52.631 45.0742 54.0604 50.4089L59.9953 72.5582L65.9302 94.7075Z" fill="#14213D"/>
</svg>
