<svg width="81" height="80" viewBox="0 0 81 80" fill="none" xmlns="http://www.w3.org/2000/svg">
<path d="M47.2427 78.4375H33.1802V65H47.2427V78.4375ZM37.8677 75.3125H42.5552V69.6875H37.8677V75.3125Z" fill="#8B8992"/>
<path d="M40.4458 69.6875H42.5552V75.3125H40.4458V78.4375H47.2427V65H40.4458V69.6875Z" fill="#57555C"/>
<path d="M75.5239 58.75H5.36768V21.25H75.5239V58.75Z" fill="#9BC9FF"/>
<path d="M75.5224 21.25H40.4443V58.75H75.5224V21.25Z" fill="#009AE5"/>
<path d="M51.9287 75.3125H28.4912V80H51.9287V75.3125Z" fill="#005ECE"/>
<path d="M37.8677 58.75H23.8052V26.7188H37.8677V58.75Z" fill="#B87FD9"/>
<path d="M37.8677 58.75H30.8364V26.7188H37.8677V58.75Z" fill="#8034AD"/>
<path d="M45.7093 20.4688H15.8054L9.72559 0H18.6698C21.8634 0 25.5804 1.14281 28.4917 3.20344V0H51.789L45.7093 20.4688Z" fill="#8B8992"/>
<path d="M51.79 0H30.7583V20.4688H45.7103L51.79 0Z" fill="#57555C"/>
<path d="M39.2739 31.4062H22.3989C18.5219 31.4062 15.3677 28.252 15.3677 24.375V15.7812H46.3052V24.375C46.3052 28.252 43.151 31.4062 39.2739 31.4062Z" fill="#E3CEF0"/>
<path d="M30.8364 15.7812V31.4062H39.2739C43.151 31.4062 46.3052 28.252 46.3052 24.375V15.7812H30.8364Z" fill="#D5B4E8"/>
<path d="M67.2753 18.4915C65.8485 18.4915 64.4407 18.1175 63.172 17.385C61.2674 16.2853 59.9049 14.5098 59.3359 12.3854C58.7667 10.2612 59.0587 8.04246 60.1584 6.13793C61.2581 4.2334 63.0335 2.87105 65.1579 2.30184L73.1107 0.170898L75.2415 8.12371C75.8107 10.2479 75.5187 12.4667 74.419 14.3712C73.3193 16.2757 71.544 17.6382 69.4196 18.2073C68.7104 18.3975 67.9903 18.4915 67.2753 18.4915Z" fill="#E0E0E2"/>
<path d="M75.2417 8.12371L73.111 0.170898H73.1108L63.1724 17.3848C64.4411 18.1173 65.8489 18.4915 67.2756 18.4914C67.9908 18.4914 68.7108 18.3973 69.42 18.2073C71.5442 17.6381 73.3197 16.2757 74.4194 14.3712C75.5189 12.4667 75.811 10.2479 75.2417 8.12371Z" fill="#ACABB1"/>
<path d="M44.3396 64.0664L32.1611 57.0351L51.6924 23.2061L63.8708 30.2373L44.3396 64.0664Z" fill="#FFE477"/>
<path d="M38.2495 60.5504L44.3384 64.0659L63.8692 30.2385L57.7803 26.7229L38.2495 60.5504Z" fill="#FFA733"/>
<path d="M63.3308 35.3387L47.5439 26.2242L61.1485 10.8042L69.8825 15.8469L63.3308 35.3387Z" fill="#FF9A00"/>
<path d="M69.8831 15.8469L65.5161 13.3257L55.438 30.7815L63.3314 35.3388L69.8831 15.8469Z" fill="#E67500"/>
<path d="M75.5239 69.6875H5.36768V54.0625H75.5239V69.6875Z" fill="#005ECE"/>
<path d="M75.5224 54.0625H40.4443V69.6875H75.5224V54.0625Z" fill="#003F8A"/>
<path d="M51.9287 75.3125H40.21V80H51.9287V75.3125Z" fill="#003F8A"/>
</svg>
