<svg width="133" height="118" viewBox="0 0 133 118" fill="none" xmlns="http://www.w3.org/2000/svg">
<rect width="80" height="80" rx="20" fill="#99F5C9" fill-opacity="0.47"/>
<g clip-path="url(#clip0)">
<circle cx="36" cy="21" r="3" fill="#14213D"/>
<circle cx="51" cy="21" r="3" fill="#14213D"/>
<circle cx="66" cy="21" r="3" fill="#14213D"/>
<circle cx="81" cy="21" r="3" fill="#14213D"/>
<circle cx="96" cy="21" r="3" fill="#14213D"/>
<circle cx="111" cy="21" r="3" fill="#14213D"/>
<circle cx="126" cy="21" r="3" fill="#14213D"/>
<circle cx="36" cy="36" r="3" fill="#14213D"/>
<circle cx="51" cy="36" r="3" fill="#14213D"/>
<circle cx="66" cy="36" r="3" fill="#14213D"/>
<circle cx="81" cy="36" r="3" fill="#14213D"/>
<circle cx="96" cy="36" r="3" fill="#14213D"/>
<circle cx="111" cy="36" r="3" fill="#14213D"/>
<circle cx="126" cy="36" r="3" fill="#14213D"/>
<circle cx="36" cy="51" r="3" fill="#14213D"/>
<circle cx="51" cy="51" r="3" fill="#14213D"/>
<circle cx="66" cy="51" r="3" fill="#14213D"/>
<circle cx="81" cy="51" r="3" fill="#14213D"/>
<circle cx="96" cy="51" r="3" fill="#14213D"/>
<circle cx="111" cy="51" r="3" fill="#14213D"/>
<circle cx="126" cy="51" r="3" fill="#14213D"/>
<circle cx="36" cy="66" r="3" fill="#14213D"/>
<circle cx="51" cy="66" r="3" fill="#14213D"/>
<circle cx="66" cy="66" r="3" fill="#14213D"/>
<circle cx="81" cy="66" r="3" fill="#14213D"/>
<circle cx="96" cy="66" r="3" fill="#14213D"/>
<circle cx="111" cy="66" r="3" fill="#14213D"/>
<circle cx="126" cy="66" r="3" fill="#14213D"/>
<circle cx="36" cy="81" r="3" fill="#14213D"/>
<circle cx="51" cy="81" r="3" fill="#14213D"/>
<circle cx="66" cy="81" r="3" fill="#14213D"/>
<circle cx="81" cy="81" r="3" fill="#14213D"/>
<circle cx="96" cy="81" r="3" fill="#14213D"/>
<circle cx="111" cy="81" r="3" fill="#14213D"/>
<circle cx="126" cy="81" r="3" fill="#14213D"/>
<circle cx="36" cy="96" r="3" fill="#14213D"/>
<circle cx="51" cy="96" r="3" fill="#14213D"/>
<circle cx="66" cy="96" r="3" fill="#14213D"/>
<circle cx="81" cy="96" r="3" fill="#14213D"/>
<circle cx="96" cy="96" r="3" fill="#14213D"/>
<circle cx="111" cy="96" r="3" fill="#14213D"/>
<circle cx="126" cy="96" r="3" fill="#14213D"/>
<circle cx="36" cy="111" r="3" fill="#14213D"/>
<circle cx="51" cy="111" r="3" fill="#14213D"/>
<circle cx="66" cy="111" r="3" fill="#14213D"/>
<circle cx="81" cy="111" r="3" fill="#14213D"/>
<circle cx="96" cy="111" r="3" fill="#14213D"/>
<circle cx="111" cy="111" r="3" fill="#14213D"/>
<circle cx="126" cy="111" r="3" fill="#14213D"/>
</g>
<defs>
<clipPath id="clip0">
<rect x="33" y="18" width="100" height="100" rx="50" fill="white"/>
</clipPath>
</defs>
</svg>
