<svg width="66" height="65" viewBox="0 0 66 65" fill="none" xmlns="http://www.w3.org/2000/svg">
<path d="M10.4414 10.1562V54.8438H55.1289V10.1562H10.4414ZM14.5039 14.2188H51.0664V50.7812H14.5039V14.2188ZM26.493 20.3125C25.3383 20.3201 24.1892 21.0901 24.1841 22.6135C24.1841 23.9135 25.2429 24.9503 26.5327 24.9503C26.8963 24.9401 28.8683 24.603 28.8337 22.5778C28.8084 21.0584 27.6478 20.3049 26.493 20.3125ZM40.1048 26.8188C38.3807 26.9631 36.4961 28.1572 35.1814 30.6076L35.951 27.1045H29.9962L29.1591 30.1831H31.952L30.2382 37.0584C28.8102 40.2353 25.2711 40.8757 25.2711 39.0659C25.2975 38.0888 25.2069 38.6786 28.1157 27.1045H21.5022L20.6651 30.1871H23.4184C21.505 37.985 21.4349 37.9597 21.4268 39.1968C21.4268 43.4116 26.8894 44.0527 29.6153 39.5697L28.9131 42.3825H32.8169L35.0505 33.4402C36.3241 28.2727 41.4565 29.365 40.2357 33.3807C39.4476 36.2042 36.7185 42.6086 42.3979 42.6086C44.4576 42.6086 46.0959 41.2826 47.0039 38.1058L45.4567 37.5266C44.2196 40.9451 42.7034 40.3292 42.7034 38.9865C42.7298 38.2857 42.7638 38.3205 43.9927 33.8965C45.4045 29.2551 42.9783 26.5784 40.1048 26.8188Z" fill="#FA314A"/>
</svg>
