<svg width="60" height="59" viewBox="0 0 60 59" fill="none" xmlns="http://www.w3.org/2000/svg">
<path d="M7.66016 12.2917C7.66016 9.57644 9.86159 7.375 12.5768 7.375H46.9935C49.7087 7.375 51.9102 9.57644 51.9102 12.2917V46.7083C51.9102 49.4236 49.7087 51.625 46.9935 51.625H12.5768C9.86159 51.625 7.66016 49.4236 7.66016 46.7083V12.2917Z" fill="#FF41C8"/>
<path d="M11.3477 11.0625V47.9375H48.2227V11.0625H11.3477ZM23.7536 26.6668L26.1063 20.6648H30.1514L26.046 29.3316L30.2473 38.1423H26.1542L23.7536 32.0321L21.3654 38.1423H17.2722L21.4735 29.3316L17.3558 20.6648H21.401L23.7536 26.6668ZM31.0991 31.2528C31.0991 29.1239 31.4593 27.5358 32.1796 26.4873C32.8999 25.4388 33.9471 24.9152 35.325 24.9152C36.3243 24.9152 37.1577 25.3479 37.8214 26.212V19.706H41.2422V38.1435H38.157L38.0009 36.8234C37.3052 37.8645 36.4079 38.3844 35.3115 38.3844C33.952 38.3844 32.9134 37.8645 32.1968 36.8234C31.4802 35.7823 31.1139 34.2544 31.0979 32.2386V31.2528H31.0991ZM34.5088 32.1046C34.5088 33.3854 34.6441 34.2802 34.9169 34.7879C35.1898 35.2955 35.6495 35.55 36.2973 35.55C36.9696 35.55 37.4773 35.25 37.8214 34.6502V28.7207C37.4859 28.0803 36.9807 27.7607 36.3096 27.7607C35.6852 27.7607 35.2291 28.0127 34.9415 28.5167C34.6539 29.0206 34.5088 29.9179 34.5088 31.2061V32.1046Z" fill="#16020B"/>
</svg>
