<svg width="60" height="59" viewBox="0 0 60 59" fill="none" xmlns="http://www.w3.org/2000/svg">
<path d="M7.66016 12.2917C7.66016 9.57644 9.86159 7.375 12.5768 7.375H46.9935C49.7087 7.375 51.9102 9.57644 51.9102 12.2917V46.7083C51.9102 49.4236 49.7087 51.625 46.9935 51.625H12.5768C9.86159 51.625 7.66016 49.4236 7.66016 46.7083V12.2917Z" fill="#B388FF"/>
<path d="M11.3477 11.0625V47.9375H48.2227V11.0625H11.3477Z" fill="#170B40"/>
<path d="M26.3224 34.3738H20.7236L19.6591 37.872H16.2642L22.0339 20.896H24.9925L30.7929 37.8708H27.398L26.3224 34.3738ZM21.5865 31.5406H25.4608L23.5138 25.1858L21.5865 31.5406ZM37.3394 38.1043C36.4446 38.1043 35.6444 37.9445 34.9389 37.6262C34.2321 37.3078 33.6335 36.8715 33.1394 36.3196C32.6453 35.7677 32.2704 35.1211 32.011 34.3787C31.7529 33.6363 31.6226 32.8423 31.6226 31.9941V31.5394C31.6226 30.5831 31.7492 29.7067 32.0012 28.9102C32.2519 28.1137 32.6108 27.4278 33.0767 26.8525C33.5401 26.2773 34.1055 25.8286 34.768 25.5054C35.4318 25.1833 36.1754 25.0211 36.9977 25.0211C37.8274 25.0211 38.5588 25.171 39.1906 25.4697C39.8224 25.7684 40.3521 26.1888 40.7823 26.7296C41.2113 27.2692 41.5346 27.9207 41.7509 28.6828C41.9673 29.4448 42.0767 30.293 42.0767 31.2259V32.6603H34.7435C34.7926 33.0721 34.8946 33.4458 35.0471 33.7789C35.1995 34.1132 35.3949 34.3984 35.6321 34.6356C35.8694 34.8728 36.1484 35.0572 36.4667 35.19C36.7863 35.3227 37.1452 35.3879 37.5423 35.3879C38.1028 35.3879 38.6215 35.2736 39.0959 35.0437C39.5716 34.8151 39.9797 34.4586 40.3202 33.9768L41.8321 35.8304C41.6477 36.118 41.4166 36.3982 41.14 36.6699C40.8635 36.9415 40.5365 37.1849 40.1604 37.3988C39.7843 37.6127 39.3614 37.7835 38.8882 37.9114C38.4162 38.0404 37.9012 38.1043 37.3394 38.1043ZM36.9891 27.7511C36.6548 27.7511 36.3635 27.815 36.1103 27.944C35.8583 28.0719 35.642 28.2513 35.4613 28.48C35.2806 28.7086 35.1331 28.9827 35.02 29.3023C34.9069 29.6206 34.8258 29.9746 34.7766 30.363H39.0554V30.0951C39.048 29.7607 39.0037 29.4498 38.9214 29.1621C38.8403 28.8745 38.7161 28.6262 38.5489 28.416C38.3818 28.2059 38.1691 28.0436 37.911 27.9268C37.6492 27.8101 37.3431 27.7511 36.9891 27.7511Z" fill="#B388FF"/>
</svg>
