<svg width="61" height="60" viewBox="0 0 61 60" fill="none" xmlns="http://www.w3.org/2000/svg">
<path d="M7.78516 12.5C7.78516 9.73875 10.0239 7.5 12.7852 7.5H47.7852C50.5464 7.5 52.7852 9.73875 52.7852 12.5V47.5C52.7852 50.2612 50.5464 52.5 47.7852 52.5H12.7852C10.0239 52.5 7.78516 50.2612 7.78516 47.5V12.5Z" fill="#FF5722"/>
<path d="M11.5352 11.25V48.75H49.0352V11.25H11.5352ZM29.8989 38.75L28.9464 35.1125H24.0514L23.1002 38.75H19.3039L24.8577 20.9762H28.1414L33.7327 38.75H29.8989ZM38.8477 38.75H35.3814V25.5425H38.8477V38.75ZM38.4752 23.4425C38.1364 23.7925 37.6802 23.9675 37.1014 23.9675C36.5227 23.9675 36.0664 23.7925 35.7277 23.4425C35.3889 23.0925 35.2214 22.6525 35.2214 22.1237C35.2214 21.5862 35.3927 21.1475 35.7339 20.805C36.0752 20.4625 36.5327 20.2925 37.1014 20.2925C37.6702 20.2925 38.1264 20.4637 38.4689 20.805C38.8114 21.1462 38.9814 21.5862 38.9814 22.1237C38.9814 22.6525 38.8127 23.0925 38.4752 23.4425Z" fill="#1C0802"/>
<path d="M24.834 32.1216H28.154L26.494 25.7866L24.834 32.1216Z" fill="#1C0802"/>
</svg>
