<svg width="53" height="51" viewBox="0 0 53 51" fill="none" xmlns="http://www.w3.org/2000/svg">
<path d="M28.4517 18.0625H19.785C15.5968 18.0625 12.2017 14.7326 12.2017 10.625C12.2017 6.51737 15.5968 3.1875 19.785 3.1875H28.4517V18.0625Z" fill="#E64A19"/>
<path d="M27.3683 32.9375H19.785C15.5968 32.9375 12.2017 29.6076 12.2017 25.5C12.2017 21.3924 15.5968 18.0625 19.785 18.0625H27.3683V32.9375Z" fill="#7C4DFF"/>
<path d="M19.785 47.8125C15.5968 47.8125 12.2017 44.4826 12.2017 40.375C12.2017 36.2674 15.5968 32.9375 19.785 32.9375H27.3683V40.375C27.3683 44.4826 23.9732 47.8125 19.785 47.8125Z" fill="#66BB6A"/>
<path d="M34.952 18.0625H27.3687V3.1875H34.952C39.1402 3.1875 42.5353 6.51737 42.5353 10.625C42.5353 14.7326 39.1402 18.0625 34.952 18.0625Z" fill="#FF7043"/>
<path d="M34.952 32.9375C39.1401 32.9375 42.5353 29.6076 42.5353 25.5C42.5353 21.3924 39.1401 18.0625 34.952 18.0625C30.7638 18.0625 27.3687 21.3924 27.3687 25.5C27.3687 29.6076 30.7638 32.9375 34.952 32.9375Z" fill="#29B6F6"/>
</svg>
